<?xml version="1.0" encoding="UTF-8"?>
<svg id="Layer_1" data-name="Layer 1" xmlns="http://www.w3.org/2000/svg" xmlns:xlink="http://www.w3.org/1999/xlink" viewBox="0 0 77.5 73">
  <defs>
    <linearGradient id="linear-gradient" x1="49.3" y1="2.5" x2="49.3" y2="73" gradientUnits="userSpaceOnUse">
      <stop offset="0" stop-color="#fff"/>
      <stop offset=".1" stop-color="#f2f3f3"/>
      <stop offset=".5" stop-color="#dadbdb"/>
      <stop offset=".8" stop-color="#cbcdcd"/>
      <stop offset="1" stop-color="#c6c8c8"/>
    </linearGradient>
    <linearGradient id="linear-gradient-2" x1="49.3" y1="-95.4" x2="49.3" y2="73" gradientUnits="userSpaceOnUse">
      <stop offset="0" stop-color="#f0544f"/>
      <stop offset="1" stop-color="#a51e22"/>
    </linearGradient>
    <linearGradient id="linear-gradient-3" x1="41.6" y1="36.6" x2="55.4" y2="22.7" gradientUnits="userSpaceOnUse">
      <stop offset="0" stop-color="#fff"/>
      <stop offset="1" stop-color="#c6c8c8"/>
    </linearGradient>
    <filter id="drop-shadow-1" filterUnits="userSpaceOnUse">
      <feOffset dx="-1.2" dy="0"/>
      <feGaussianBlur result="blur" stdDeviation=".8"/>
      <feFlood flood-color="#231f20" flood-opacity=".5"/>
      <feComposite in2="blur" operator="in"/>
      <feComposite in="SourceGraphic"/>
    </filter>
    <linearGradient id="linear-gradient-4" x1="743.3" y1="6.7" x2="743.3" y2="25.5" gradientTransform="translate(807.8) rotate(-180) scale(1 -1)" xlink:href="#linear-gradient-2"/>
  </defs>
  <rect x="22.6" y="2.5" width="53.2" height="70.5" style={{ fill: url(#linear-gradient);"/>
  <path d="m41.5,36.5h0s0,0,0,0c0-26.6-6-32.5-9-33.7-.4-.2-.7-.3-.9-.3,0,0,0,0,0,0,0,0,0,0,0,0,0,0,0,0-.1,0h-8.8v70.5h53.2v-26.5c-.2-1-.4-1.2-.8-1.8-3.9-6.3-22.5-8.6-33.5-8.1Z" style={{ fill: url(#linear-gradient-2);"/>
  <path d="m75.9,46.4c-.3-3.3-3.9-7.1-7-10.2-3.2-3.3-30.4-30-30.4-30,0,0-2.9-3.4-7-3.8,0,0,0,0,.1,0,0,0,0,0,0,0,0,0,0,0,0,0,.2,0,.5.1.9.3,3,1.3,9,7.1,9,33.7h0c11-.5,29.7,1.8,33.5,8.1.4.6.6.8.8,1.8,0,0,0,0,0,0Z" style={{ fill: url(#linear-gradient-3); filter: url(#drop-shadow-1);"/>
  <polygon id="arrow" points="72.9 16.2 70.1 16.2 70.1 6.7 58.9 6.7 58.9 16.2 56.1 16.2 64.5 25.5 72.9 16.2" style={{ fill: url(#linear-gradient-4);"/>
  <g id="PDF">
    <path d="m37.8,50.3c0,2.5-1.5,3.9-4.2,3.9h-1.6v3.3h-2.8v-11h4.4c2.7,0,4.2,1.4,4.2,3.9Zm-2.8,0c0-.7-.4-1.5-1.6-1.5h-1.4v3.1h1.4c1.3,0,1.6-.8,1.6-1.5Z" style={{ fill: #fff;"/>
    <path d="m48.2,52c0,3.6-1.8,5.5-5.2,5.5h-4v-11h4c3.4,0,5.2,1.9,5.2,5.5Zm-2.8,0c0-2-.7-3.2-2.4-3.2h-1.1v6.4h1.1c1.7,0,2.4-1.2,2.4-3.2Z" style={{ fill: #fff;"/>
    <path d="m52.6,48.8v2.2h4.7v2.3h-4.7v4.1h-2.8v-11h7.5v2.3h-4.6Z" style={{ fill: #fff;"/>
  </g>
  <g id="DOWNLOAD">
    <path d="m30.6,61.4c1.5,0,2.3.8,2.3,2.4s-.8,2.5-2.3,2.5h-1.5v-4.9h1.5Zm1.8,2.4c0-1.4-.6-2-1.8-2h-1v3.9h1c1.2,0,1.8-.6,1.8-2Z" style={{ fill: #fff;"/>
    <path d="m38.3,63.9c0,1.7-.8,2.5-2.3,2.5s-2.3-.8-2.3-2.5.8-2.5,2.3-2.5,2.3.8,2.3,2.5Zm-.5,0c0-1.4-.5-2-1.7-2s-1.7.6-1.7,2,.5,2,1.7,2,1.7-.6,1.7-2Z" style={{ fill: #fff;"/>
    <path d="m45.5,61.4l-1.6,4.9h-.5l-1.3-4-1.3,4h-.5l-1.6-4.9h.6l1.3,4.1,1.3-4.1h.5l1.3,4.1,1.3-4.1h.6Z" style={{ fill: #fff;"/>
    <path d="m50.3,61.4v4.9h-.6l-2.9-4.1v4.1h-.5v-4.9h.6l2.9,4.1v-4.1h.5Z" style={{ fill: #fff;"/>
    <path d="m54.5,65.8v.5h-3v-4.9h.5v4.4h2.5Z" style={{ fill: #fff;"/>
    <path d="m59.6,63.9c0,1.7-.8,2.5-2.3,2.5s-2.3-.8-2.3-2.5.8-2.5,2.3-2.5,2.3.8,2.3,2.5Zm-.5,0c0-1.4-.5-2-1.7-2s-1.7.6-1.7,2,.5,2,1.7,2,1.7-.6,1.7-2Z" style={{ fill: #fff;"/>
    <path d="m64.5,66.3h-.6l-.6-1.5h-2.1l-.6,1.5h-.6l2-4.9h.5l1.9,4.9Zm-1.4-2l-.9-2.2-.9,2.2h1.7Z" style={{ fill: #fff;"/>
    <path d="m66.8,61.4c1.5,0,2.3.8,2.3,2.4s-.8,2.5-2.3,2.5h-1.5v-4.9h1.5Zm1.8,2.4c0-1.4-.6-2-1.8-2h-1v3.9h1c1.2,0,1.8-.6,1.8-2Z" style={{ fill: #fff;"/>
  </g>
  <path d="m3.4,56.8c-.6,0-1.2-.2-1.7-.5C.7,55.7,0,54.6,0,53.4V18.3c0-1.2.6-2.4,1.7-3,1-.6,2.4-.6,3.4,0l30.4,17.5c1.1.6,1.7,1.7,1.7,3,0,1.2-.7,2.4-1.7,3L5.1,56.3c-.5.3-1.1.5-1.7.5Zm0-39.9c-.3,0-.5,0-.7.2-.4.3-.7.7-.7,1.2v35.1c0,.5.3,1,.7,1.2.4.3,1,.2,1.4,0l30.4-17.6c.4-.3.7-.7.7-1.2s-.3-1-.7-1.2L4.1,17c-.2-.1-.5-.2-.7-.2Z" style={{ fill: #fff;"/>
</svg>
