<?xml version="1.0" encoding="UTF-8"?>
<svg id="Layer_1" data-name="Layer 1" xmlns="http://www.w3.org/2000/svg" viewBox="0 0 270.9 270">
  <path d="m267,61.6L137.2.5c-1.4-.7-3-.7-4.4,0L3,61.6c-1.8.9-3,2.7-3,4.7v36.2c0,1.8.9,3.4,2.4,4.4,1.5,1,3.4,1.1,5,.3l18.6-8.7v38.1c0,2.9,2.3,5.2,5.2,5.2s5.2-2.3,5.2-5.2v-43l98.7-46.4,98.7,46.4v43c0,2.9,2.3,5.2,5.2,5.2s5.2-2.3,5.2-5.2v-38.1l18.6,8.7c.7.3,1.5.5,2.2.5s1.9-.3,2.8-.8c1.5-1,2.4-2.6,2.4-4.4v-36.2c0-2-1.2-3.8-3-4.7Zm-7.4,32.8l-122.4-57.6c-.7-.3-1.5-.5-2.2-.5s-1.5.2-2.2.5L10.4,94.4v-24.8L135,10.9l124.6,58.7v24.8Z" style="fill: #4d4d4d;"/>
  <path d="m243.2,167.2c-2-1.7-4.9-1.7-6.8,0l-22.5,19.7-22.5-19.7c-2-1.7-4.9-1.7-6.8,0l-22.5,19.7-22.5-19.7c-2-1.7-4.9-1.7-6.8,0l-22.5,19.7-22.5-19.7c-2-1.7-4.9-1.7-6.8,0l-22.5,19.7-22.5-19.7c-2-1.7-4.9-1.7-6.8,0l-26,22.7c-1.1,1-1.8,2.4-1.8,3.9v71c0,2.9,2.3,5.2,5.2,5.2h259.6c2.9,0,5.2-2.3,5.2-5.2v-71c0-1.5-.6-2.9-1.8-3.9l-26-22.7ZM11.3,196.2l20.8-18.2,20.8,18.2v63.4H11.3v-63.4Zm51.9,0l20.8-18.2,20.8,18.2v63.4h-41.5v-63.4Zm51.9,0l20.8-18.2,20.8,18.2v63.4h-41.5v-63.4Zm51.9,0l20.8-18.2,20.8,18.2v63.4h-41.5v-63.4Zm93.5,63.4h-41.5v-63.4l20.8-18.2,20.8,18.2v63.4Z" style="fill: #4d4d4d;"/>
  <path d="m166,160.9c2.9,0,5.2-2.3,5.2-5.2v-49.8c0-2.9-2.3-5.2-5.2-5.2h-60.3c-2.9,0-5.2,2.3-5.2,5.2v49.8c0,2.9,2.3,5.2,5.2,5.2s5.2-2.3,5.2-5.2v-44.6h49.9v44.6c0,2.9,2.3,5.2,5.2,5.2Z" style="fill: #4d4d4d;"/>
</svg>