<?xml version="1.0" encoding="UTF-8"?>
<svg id="Layer_1" data-name="Layer 1" xmlns="http://www.w3.org/2000/svg" viewBox="0 0 304.4 159.2">
  <g>
    <g>
      <path d="m227,68.3c0,1.1-.1,2.2-.4,3.3-1.4,6.4-7,11.3-13.8,11.8-.3,0-.7,0-1,0h0c-.2,0-.4,0-.6,0-7-.3-12.7-5.3-14.2-11.9-.2-1-.4-2.1-.4-3.2,0-3.1.9-6,2.6-8.4,2.7-4.1,7.3-6.7,12.6-6.7,5.3,0,10,2.7,12.7,6.9,1.6,2.4,2.5,5.2,2.5,8.3Z" style={{ fill: none; stroke: #1d1d1b; stroke-linecap: round; stroke-linejoin: round; stroke-width: 6.3px;"/>
      <path d="m211.8,83.4h10.8c6.9,0,12.9,5,14,11.9l1.2,7.4" style={{ fill: none; stroke: #1d1d1b; stroke-linecap: round; stroke-linejoin: round; stroke-width: 6.3px;"/>
      <path d="m211.8,83.4h-10.8c-7,0-12.9,5-14,11.9l-1.2,7.4h0" style={{ fill: none; stroke: #1d1d1b; stroke-linecap: round; stroke-linejoin: round; stroke-width: 6.3px;"/>
    </g>
    <g>
      <path d="m167.3,68.3c0,1.1-.1,2.2-.4,3.3-1.4,6.5-7,11.3-13.8,11.8-.3,0-.7,0-1,0h0c-.2,0-.4,0-.6,0-7-.3-12.7-5.3-14.2-11.9-.2-1-.4-2.1-.4-3.2,0-3.1.9-6,2.6-8.4,2.7-4.1,7.3-6.7,12.6-6.7,5.3,0,10,2.7,12.7,6.9,1.6,2.4,2.5,5.2,2.5,8.3Z" style={{ fill: none; stroke: #1d1d1b; stroke-linecap: round; stroke-linejoin: round; stroke-width: 6.3px;"/>
      <path d="m126.2,102.8l1.2-7.4c1.1-6.9,7-11.9,14-11.9h21.6c7,0,12.9,5,14,11.9l1.2,7.4" style={{ fill: none; stroke: #1d1d1b; stroke-linecap: round; stroke-linejoin: round; stroke-width: 6.3px;"/>
    </g>
    <path d="m182,113.6v40.6c0,1-.8,1.8-1.8,1.8h-56c-1,0-1.8-.8-1.8-1.8v-40.6c0-2.7.6-5.3,1.8-7.6.6-1.2,1.3-2.3,2.1-3.3,3.1-3.9,8-6.4,13.3-6.4h25.3c5.4,0,10.2,2.5,13.3,6.4.8,1,1.5,2.1,2.1,3.3,1.1,2.3,1.8,4.8,1.8,7.6Z" style={{ fill: none; stroke: #1d1d1b; stroke-linecap: round; stroke-linejoin: round; stroke-width: 6.3px;"/>
    <path d="m241.7,113.6v40.6c0,1-.8,1.8-1.8,1.8h-56c-1,0-1.8-.8-1.8-1.8v-40.6c0-2.7.6-5.3,1.8-7.6.6-1.2,1.3-2.3,2.1-3.3h0c3.1-3.9,8-6.4,13.3-6.4h25.3c5.4,0,10.2,2.5,13.3,6.4.8,1,1.5,2.1,2.1,3.3,1.1,2.3,1.8,4.8,1.8,7.6Z" style={{ fill: none; stroke: #1d1d1b; stroke-linecap: round; stroke-linejoin: round; stroke-width: 6.3px;"/>
    <g>
      <path d="m256.3,68.3c0,8.4,6.8,15.1,15.1,15.1,8.4,0,15.1-6.8,15.1-15.1s-6.8-15.1-15.1-15.1c-8.4,0-15.1,6.8-15.1,15.1Z" style={{ fill: none; stroke: #1d1d1b; stroke-linecap: round; stroke-linejoin: round; stroke-width: 6.3px;"/>
      <path d="m271.5,83.4h10.8c7,0,12.9,5,14,11.9l1.2,7.4" style={{ fill: none; stroke: #1d1d1b; stroke-linecap: round; stroke-linejoin: round; stroke-width: 6.3px;"/>
      <path d="m245.5,102.8l1.2-7.4c1.1-6.9,7-11.9,14-11.9h10.8" style={{ fill: none; stroke: #1d1d1b; stroke-linecap: round; stroke-linejoin: round; stroke-width: 6.3px;"/>
    </g>
    <path d="m271.5,96.4h0c16.5,0,29.8,13.4,29.8,29.8v26.6c0,1.8-1.4,3.2-3.2,3.2h-53.3c-1.8,0-3.2-1.4-3.2-3.2v-26.6c0-16.5,13.4-29.8,29.8-29.8Z" style={{ fill: none; stroke: #1d1d1b; stroke-linecap: round; stroke-linejoin: round; stroke-width: 6.3px;"/>
    <g>
      <path d="m17.8,68.3c0,8.4,6.8,15.1,15.1,15.1,8.4,0,15.1-6.8,15.1-15.1s-6.8-15.1-15.1-15.1c-8.4,0-15.1,6.8-15.1,15.1Z" style={{ fill: none; stroke: #1d1d1b; stroke-linecap: round; stroke-linejoin: round; stroke-width: 6.3px;"/>
      <path d="m33,83.4h10.8c6.9,0,12.9,5,14,11.9l1.2,7.4" style={{ fill: none; stroke: #1d1d1b; stroke-linecap: round; stroke-linejoin: round; stroke-width: 6.3px;"/>
      <path d="m7,102.8l1.2-7.4c1.1-6.9,7-11.9,14-11.9h10.8" style={{ fill: none; stroke: #1d1d1b; stroke-linecap: round; stroke-linejoin: round; stroke-width: 6.3px;"/>
    </g>
    <path d="m33,96.4h0c16.5,0,29.8,13.4,29.8,29.8v26.6c0,1.8-1.4,3.2-3.2,3.2H6.3c-1.8,0-3.2-1.4-3.2-3.2v-26.6c0-16.5,13.4-29.8,29.8-29.8Z" style={{ fill: none; stroke: #1d1d1b; stroke-linecap: round; stroke-linejoin: round; stroke-width: 6.3px;"/>
    <g>
      <path d="m77.5,68.3c0,8.4,6.8,15.1,15.1,15.1,8.4,0,15.1-6.8,15.1-15.1s-6.8-15.1-15.1-15.1c-8.4,0-15.1,6.8-15.1,15.1Z" style={{ fill: none; stroke: #1d1d1b; stroke-linecap: round; stroke-linejoin: round; stroke-width: 6.3px;"/>
      <path d="m92.6,83.4h10.8c7,0,12.9,5,14,11.9l1.2,7.4" style={{ fill: none; stroke: #1d1d1b; stroke-linecap: round; stroke-linejoin: round; stroke-width: 6.3px;"/>
      <path d="m66.6,102.8l1.2-7.4c1.1-6.9,7-11.9,14-11.9h10.8" style={{ fill: none; stroke: #1d1d1b; stroke-linecap: round; stroke-linejoin: round; stroke-width: 6.3px;"/>
    </g>
    <path d="m92.6,96.4h0c16.5,0,29.8,13.4,29.8,29.8v26.6c0,1.8-1.4,3.2-3.2,3.2h-53.3c-1.8,0-3.2-1.4-3.2-3.2v-26.6c0-16.5,13.4-29.8,29.8-29.8Z" style={{ fill: none; stroke: #1d1d1b; stroke-linecap: round; stroke-linejoin: round; stroke-width: 6.3px;"/>
  </g>
  <g>
    <g>
      <path d="m196.7,18.3c0,8.4,6.8,15.1,15.1,15.1,8.4,0,15.1-6.8,15.1-15.1,0-8.4-6.8-15.1-15.1-15.1-8.4,0-15.1,6.8-15.1,15.1Z" style={{ fill: none; stroke: #1d1d1b; stroke-linecap: round; stroke-linejoin: round; stroke-width: 6.3px;"/>
      <path d="m211.8,33.4h10.8c2.4,0,4.6.6,6.5,1.6" style={{ fill: none; stroke: #1d1d1b; stroke-linecap: round; stroke-linejoin: round; stroke-width: 6.3px;"/>
      <path d="m211.8,33.4h-10.8c-2.2,0-4.4.5-6.3,1.5" style={{ fill: none; stroke: #1d1d1b; stroke-linecap: round; stroke-linejoin: round; stroke-width: 6.3px;"/>
    </g>
    <g>
      <path d="m137.1,18.3c0,8.4,6.8,15.1,15.1,15.1,8.4,0,15.1-6.8,15.1-15.1,0-8.4-6.8-15.1-15.1-15.1-8.4,0-15.1,6.8-15.1,15.1Z" style={{ fill: none; stroke: #1d1d1b; stroke-linecap: round; stroke-linejoin: round; stroke-width: 6.3px;"/>
      <path d="m169.5,35c-2-1-4.2-1.6-6.5-1.6h-21.6c-2.2,0-4.4.5-6.3,1.5" style={{ fill: none; stroke: #1d1d1b; stroke-linecap: round; stroke-linejoin: round; stroke-width: 6.3px;"/>
    </g>
    <path d="m137.4,46.5c.7,0,1.5-.1,2.2-.1h25.3c.9,0,1.8,0,2.6.2" style={{ fill: none; stroke: #1d1d1b; stroke-linecap: round; stroke-linejoin: round; stroke-width: 6.3px;"/>
    <path d="m197,46.5c.7,0,1.5-.1,2.2-.1h25.3c.9,0,1.8,0,2.6.2" style={{ fill: none; stroke: #1d1d1b; stroke-linecap: round; stroke-linejoin: round; stroke-width: 6.3px;"/>
    <g>
      <path d="m256.3,18.3c0,8.4,6.8,15.1,15.1,15.1,8.4,0,15.1-6.8,15.1-15.1s-6.8-15.1-15.1-15.1c-8.4,0-15.1,6.8-15.1,15.1Z" style={{ fill: none; stroke: #1d1d1b; stroke-linecap: round; stroke-linejoin: round; stroke-width: 6.3px;"/>
      <path d="m271.5,33.4h10.8c7,0,12.9,5,14,11.9l1.2,7.4" style={{ fill: none; stroke: #1d1d1b; stroke-linecap: round; stroke-linejoin: round; stroke-width: 6.3px;"/>
      <path d="m271.5,33.4h-10.8c-2.2,0-4.4.5-6.3,1.5" style={{ fill: none; stroke: #1d1d1b; stroke-linecap: round; stroke-linejoin: round; stroke-width: 6.3px;"/>
    </g>
    <path d="m256.6,46.5c.7,0,1.5-.1,2.2-.1h25.3c5.4,0,10.2,2.5,13.3,6.4,2.4,3,3.8,6.7,3.8,10.8v40.6c0,1-.8,1.8-1.8,1.8,0,0,0,0,0,0" style={{ fill: none; stroke: #1d1d1b; stroke-linecap: round; stroke-linejoin: round; stroke-width: 6.3px;"/>
    <g>
      <path d="m17.8,18.3c0,8.4,6.8,15.1,15.1,15.1,8.4,0,15.1-6.8,15.1-15.1s-6.8-15.1-15.1-15.1c-8.4,0-15.1,6.8-15.1,15.1Z" style={{ fill: none; stroke: #1d1d1b; stroke-linecap: round; stroke-linejoin: round; stroke-width: 6.3px;"/>
      <path d="m33,33.4h10.8c2.4,0,4.6.6,6.5,1.6" style={{ fill: none; stroke: #1d1d1b; stroke-linecap: round; stroke-linejoin: round; stroke-width: 6.3px;"/>
      <path d="m7,52.8l1.2-7.4c1.1-6.9,7-11.9,14-11.9h10.8" style={{ fill: none; stroke: #1d1d1b; stroke-linecap: round; stroke-linejoin: round; stroke-width: 6.3px;"/>
    </g>
    <path d="m5,106s0,0,0,0c-1,0-1.8-.8-1.8-1.8v-40.6c0-4.1,1.4-7.9,3.8-10.8h0c3.2-3.9,8-6.4,13.3-6.4h25.3c.9,0,1.8,0,2.6.2" style={{ fill: none; stroke: #1d1d1b; stroke-linecap: round; stroke-linejoin: round; stroke-width: 6.3px;"/>
    <g>
      <path d="m77.5,18.3c0,8.4,6.8,15.1,15.1,15.1,8.4,0,15.1-6.8,15.1-15.1s-6.8-15.1-15.1-15.1c-8.4,0-15.1,6.8-15.1,15.1Z" style={{ fill: none; stroke: #1d1d1b; stroke-linecap: round; stroke-linejoin: round; stroke-width: 6.3px;"/>
      <path d="m92.6,33.4h10.8c2.4,0,4.6.6,6.5,1.6" style={{ fill: none; stroke: #1d1d1b; stroke-linecap: round; stroke-linejoin: round; stroke-width: 6.3px;"/>
      <path d="m92.6,33.4h-10.8c-2.2,0-4.4.5-6.3,1.5" style={{ fill: none; stroke: #1d1d1b; stroke-linecap: round; stroke-linejoin: round; stroke-width: 6.3px;"/>
    </g>
    <path d="m77.7,46.5c.7,0,1.5-.1,2.2-.1h25.3c.9,0,1.8,0,2.6.2" style={{ fill: none; stroke: #1d1d1b; stroke-linecap: round; stroke-linejoin: round; stroke-width: 6.3px;"/>
  </g>
  <g>
    <g>
      <path d="m226.7,43.3c0,8.4,6.8,15.1,15.1,15.1,8.4,0,15.1-6.8,15.1-15.1,0-8.4-6.8-15.1-15.1-15.1-8.4,0-15.1,6.8-15.1,15.1Z" style={{ fill: none; stroke: #1d1d1b; stroke-linecap: round; stroke-linejoin: round; stroke-width: 6.3px;"/>
      <path d="m241.8,58.4h10.8c2.2,0,4.4.5,6.3,1.5" style={{ fill: none; stroke: #1d1d1b; stroke-linecap: round; stroke-linejoin: round; stroke-width: 6.3px;"/>
      <path d="m241.8,58.4h-10.8c-2.4,0-4.6.6-6.6,1.6" style={{ fill: none; stroke: #1d1d1b; stroke-linecap: round; stroke-linejoin: round; stroke-width: 6.3px;"/>
    </g>
    <g>
      <path d="m167.1,43.3c0,8.4,6.8,15.1,15.1,15.1,8.4,0,15.1-6.8,15.1-15.1,0-8.4-6.8-15.1-15.1-15.1-8.4,0-15.1,6.8-15.1,15.1Z" style={{ fill: none; stroke: #1d1d1b; stroke-linecap: round; stroke-linejoin: round; stroke-width: 6.3px;"/>
      <path d="m199.3,59.9c-1.9-.9-4-1.5-6.3-1.5h-21.6c-2.4,0-4.6.6-6.6,1.6" style={{ fill: none; stroke: #1d1d1b; stroke-linecap: round; stroke-linejoin: round; stroke-width: 6.3px;"/>
    </g>
    <path d="m167,71.6c.9-.1,1.7-.2,2.6-.2h25.3c.7,0,1.5,0,2.2.1" style={{ fill: none; stroke: #1d1d1b; stroke-linecap: round; stroke-linejoin: round; stroke-width: 6.3px;"/>
    <path d="m226.6,71.6c.9-.1,1.7-.2,2.6-.2h25.3c.8,0,1.5,0,2.2.1" style={{ fill: none; stroke: #1d1d1b; stroke-linecap: round; stroke-linejoin: round; stroke-width: 6.3px;"/>
    <g>
      <path d="m47.8,43.3c0,8.4,6.8,15.1,15.1,15.1,8.4,0,15.1-6.8,15.1-15.1s-6.8-15.1-15.1-15.1c-8.4,0-15.1,6.8-15.1,15.1Z" style={{ fill: none; stroke: #1d1d1b; stroke-linecap: round; stroke-linejoin: round; stroke-width: 6.3px;"/>
      <path d="m63,58.4h10.8c2.2,0,4.4.5,6.3,1.5" style={{ fill: none; stroke: #1d1d1b; stroke-linecap: round; stroke-linejoin: round; stroke-width: 6.3px;"/>
      <path d="m63,58.4h-10.8c-2.4,0-4.6.6-6.6,1.6" style={{ fill: none; stroke: #1d1d1b; stroke-linecap: round; stroke-linejoin: round; stroke-width: 6.3px;"/>
    </g>
    <path d="m47.7,71.6c.8-.1,1.7-.2,2.6-.2h25.3c.8,0,1.5,0,2.2.1" style={{ fill: none; stroke: #1d1d1b; stroke-linecap: round; stroke-linejoin: round; stroke-width: 6.3px;"/>
    <g>
      <path d="m107.5,43.3c0,8.4,6.8,15.1,15.1,15.1,8.4,0,15.1-6.8,15.1-15.1s-6.8-15.1-15.1-15.1c-8.4,0-15.1,6.8-15.1,15.1Z" style={{ fill: none; stroke: #1d1d1b; stroke-linecap: round; stroke-linejoin: round; stroke-width: 6.3px;"/>
      <path d="m122.6,58.4h10.8c2.2,0,4.4.5,6.3,1.5" style={{ fill: none; stroke: #1d1d1b; stroke-linecap: round; stroke-linejoin: round; stroke-width: 6.3px;"/>
      <path d="m122.6,58.4h-10.8c-2.4,0-4.6.6-6.6,1.6" style={{ fill: none; stroke: #1d1d1b; stroke-linecap: round; stroke-linejoin: round; stroke-width: 6.3px;"/>
    </g>
    <path d="m107.3,71.6c.8-.1,1.7-.2,2.6-.2h25.3c.8,0,1.5,0,2.2.1" style={{ fill: none; stroke: #1d1d1b; stroke-linecap: round; stroke-linejoin: round; stroke-width: 6.3px;"/>
  </g>
</svg>
