<?xml version="1.0" encoding="UTF-8"?>
<svg id="Layer_1" data-name="Layer 1" xmlns="http://www.w3.org/2000/svg" viewBox="0 0 112 112">
  <line x1="82" y1="14" x2="30" y2="14" style={{ fill: none; stroke: #424143; stroke-linecap: round; stroke-linejoin: round; stroke-width: 4px;"/>
  <polyline points="94 14 110 14 110 110 2 110 2 14 18 14" style={{ fill: none; stroke: #424143; stroke-linecap: round; stroke-linejoin: round; stroke-width: 4px;"/>
  <path d="m24,26h0c-3.3,0-6-2.7-6-6v-12c0-3.3,2.7-6,6-6h0c3.3,0,6,2.7,6,6v12c0,3.3-2.7,6-6,6Z" style={{ fill: none; stroke: #424143; stroke-linecap: round; stroke-linejoin: round; stroke-width: 4px;"/>
  <path d="m88,26h0c3.3,0,6-2.7,6-6v-12c0-3.3-2.7-6-6-6h0c-3.3,0-6,2.7-6,6v12c0,3.3,2.7,6,6,6Z" style={{ fill: none; stroke: #424143; stroke-linecap: round; stroke-linejoin: round; stroke-width: 4px;"/>
  <line x1="2" y1="38" x2="110" y2="38" style={{ fill: none; stroke: #424143; stroke-linecap: round; stroke-linejoin: round; stroke-width: 4px;"/>
  <path d="m74.5,60.1c2.2,3.4,3.5,7.5,3.5,11.9,0,12.1-9.9,22-22,22s-22-9.9-22-22,9.8-22,22-22" style={{ fill: none; stroke: #424143; stroke-linecap: round; stroke-linejoin: round; stroke-width: 4px;"/>
  <polyline points="72.1 69.7 74.5 60 83.1 65.1" style={{ fill: none; stroke: #424143; stroke-linecap: round; stroke-linejoin: round; stroke-width: 4px;"/>
</svg>
