<?xml version="1.0" encoding="UTF-8"?>
<svg id="Layer_1" data-name="Layer 1" xmlns="http://www.w3.org/2000/svg" viewBox="0 0 382.2 263.1">
  <path d="m382.2,54.9s-9.1,1.2-16.9-4.2c-7.9-5.4-9.1-12.7-22-10.3v34c-18.7-17.7-50.6-31.5-90-38.7v-12.3s27.8,2.4,33.8-8.5c0,0-9.1,1.2-16.9-4.2-7.9-5.4-9.1-12.7-22-10.3v34.3c-18.1-3-37.7-4.7-58.3-4.7s-38.3,1.5-55.8,4.2V.5c-13-2.4-14.2,4.8-22,10.3-7.9,5.4-16.9,4.2-16.9,4.2,6,10.9,33.8,8.5,33.8,8.5v11.8c-38.8,6.8-70.5,19.9-90,36.8v-31.6c-13-2.4-14.2,4.8-22,10.3-7.9,5.4-16.9,4.2-16.9,4.2,6,10.9,33.8,8.5,33.8,8.5v13.6c-10.1,10.4-15.7,22.1-15.7,34.6s7.5,27.8,20.9,39.4v25.8c-14.2-11.6-17.6-20.6-17.6-20.6-.8,11.2,6.6,21.5,17.6,30.6v22c-14.2-11.8-17.6-20.3-17.6-20.3,11.7,53.5,120.1,74.7,120.1,74.7l-11-42.5c7.3-13.9,59.3-11.7,59.3-11.7,0,0,52-2.2,59.3,11.7l-11,42.5s108.4-21.2,120.1-74.7c0,0-3.4,8.5-17.6,20.3v-22c11.1-9,18.5-19.3,17.6-30.6,0,0-3.4,9-17.6,20.6v-25.8c13.3-11.6,20.9-25,20.9-39.4s-4.7-22.1-13.2-31.8v-16.3s27.8,2.4,33.8-8.5Zm-135.7-8.3l-10.5,19.3c-14.4-2.2-29.9-3.5-46.2-3.5s-30.4,1.1-44.3,3.2l-11.4-19.1c17.5-2.9,36.3-4.5,55.8-4.5s39,1.7,56.7,4.7Zm-15.1,27.6l-14.9,27.2c-8.5-1.1-17.4-1.7-26.7-1.7s-15.7.4-23.1,1.2l-16.2-27.1c12.5-1.7,25.7-2.7,39.4-2.7s28.4,1.1,41.6,3ZM29.8,111.5c0-27.7,39.6-52.3,95-63.3l11.4,19c-52.4,9.7-88.5,33.2-88.5,61.5s1.9,12.7,5.5,18.6c-14.8-10.5-23.4-22.7-23.4-35.6Zm51.7,122.5c-14.4-6.4-25.5-12.8-34-18.8v-22.2c10.3,6.9,22.5,12.9,34,17.8v23.1Zm0-33.5c-14.5-5.7-25.5-11.7-34-17.4v-25.5c9.4,6.6,20.9,12.5,34,17.5v25.4Zm-25-71.8c0-23.8,35.6-44.7,84.6-53.2l16.1,26.9c-39.1,6.2-67.2,23-67.2,42.9s6.4,18.3,17.3,25.5c-7.9-2.1-15.3-4.5-22.2-7.2-17.8-9.8-28.6-21.9-28.6-35Zm74.7,122.8c-15.9-4.4-29.5-9.1-41.2-13.9v-23.3c18.7,7.4,33.9,11.5,33.9,11.5l7.3,25.6Zm158.4-13.9c-11.7,4.8-25.3,9.5-41.2,13.9l7.3-25.6s15.2-4.1,33.9-11.5v23.3Zm0-34c-9.9,3.5-21.1,6.8-33.9,9.8,0,0-25.6-12.5-65.9-11.7-40.3-.7-65.9,11.7-65.9,11.7-12.8-3-24-6.3-33.9-9.8v-25.5c7,2.3,14.3,4.4,22.1,6.2,22.2,6.7,48.9,10.5,77.8,10.5s55.6-3.8,77.8-10.5c7.7-1.8,15.1-3.9,22.1-6.2v25.5Zm-17.3-32.8c10.9-7.3,17.3-16.1,17.3-25.5,0-19.3-26.5-35.8-63.9-42.4l14.9-27.1c47.9,8.8,82.5,29.5,82.5,52.9s-10.8,25.2-28.6,35c-6.9,2.6-14.4,5-22.2,7.2Zm59.8,44.4c-8.5,5.9-19.6,12.4-34,18.8v-23.1c11.5-4.9,23.7-10.9,34-17.8v22.2Zm0-32.2c-8.5,5.7-19.5,11.7-34,17.4v-25.4c13.1-5,24.6-10.9,34-17.5v25.5Zm-5.7-35.9c3.6-5.9,5.5-12.1,5.5-18.6,0-27.9-35.4-51.3-86.8-61.1l10.5-19.1c55,11.1,94.2,35.6,94.2,63.2s-8.6,25.1-23.4,35.6Z" style={{ fill: #010101;"/>
</svg>
