<?xml version="1.0" encoding="UTF-8"?>
<svg id="Layer_1" data-name="Layer 1" xmlns="http://www.w3.org/2000/svg" viewBox="0 0 540.9 508.4">
  <path d="m469.9,348.7c24.1-13,45.6-33.3,60.1-55.2,15.4-23.2,17.3-54.2-13.2-63.7-22.7-7.1-33.9,28.8-12.6,29.5,9.8.3,10.7,13,5.3,23.1-11.3,21.4-31.1,40.4-53.8,50.9,5.3,4.8,10.1,9.9,14.2,15.4h0Z" style="fill: #94ad3e; fill-rule: evenodd;"/>
  <path d="m397,292c3.6,9.5,10.4,16.7,18.5,23.4,13.8-38-23.4-63.1-75.4-27.9-82.7,55.9-147.2,75.2-234.7,111.6-102.5,42.5-96.6,71.8-17.2,86.2,96.5,17.5,223.6,9.7,317.4-13.9-86.2,32.8-224.3,46.2-317.4,30.5-107.8-18.2-128.6-72.5,5-127.2,87.7-35.9,146.5-47.7,229.5-107.7,94.6-68.5,144.3,12.9,115,64.9,45.1,33.7,69.9,113.7,6.4,126.2,33.1-21.3,12.8-74.9-13.7-105-16.8-19.1-34.5-39.1-33.3-60.9h0Z" style="fill: #a91f23; fill-rule: evenodd;"/>
  <path d="m66.6,186.2c-5.6,25.4-5.8,51.9-1.1,77.5,1,7.4,2.8,14.7,4.4,21.9,2,9.1,4.5,18.1,7.4,26.9,5.3,16.1,12.1,31.5,20.3,46.3-7.8-3.9-13.7-9.8-19.5-16.4-6.8-7.8-12.8-16.4-17.8-25.5-5.1-9.3-9-19-11.6-29.3-1.3-5.3-2.4-10.7-3.6-16.1-3.3-23.2-3.4-46.9-.3-70.1,2.3-17.6,6.4-35.3,16.1-50.2,8.6-13.2,21.2-23.3,31-35.7-8.6,10.7-10.6,25.3-10.3,39,.5,24.4,7,48.7,18.8,70.1,6.7,12.1,15.9,23.9,29,28.3,2.8.9,6.2,1.3,8.3-.8,2.9-2.9.6-7.8-1.6-11.2-13.7-21.1-23.9-46.1-20.2-71,3.2-21.5,16.4-40.1,29.9-57.2,5.5-6.9,11.1-13.8,14.7-21.9,5-11,5.7-23.5,5.3-35.5-.8-20.3-5.8-42-20.9-55.5,36.5,13,62.3,51.4,60.5,90.2-.6,13.5-4.2,26.7-4.7,40.3-.7,20.2,5.7,40.1,15.6,57.7,4.2,7.6,9.3,15,16.7,19.6,7.3,4.6,17.4,5.8,24.6.9,6.8-4.6,9.5-13.6,9.3-21.9-.3-8.3-3-16.2-4.7-24.3-5.4-24.6-1.8-51.1,10-73.4-3.5,20.2,5.9,40.3,16.9,57.5,11,17.3,24.1,33.7,29.8,53.4,2.3,8,3.2,16.4,2.8,24.7-.5,3.7-1,7.5-1.9,11.1-1.7,6.3-4.8,12-8.2,17.4-3.7,5.8-7.3,11.8-11.9,16.9,2.2-17.9,4.1-36,2.1-53.9-2.1-19.3-9.3-38.7-23.4-52.1,4.3,11,8.7,22.6,7.7,34.4-1.6,18.8-18.2,34.7-36.9,37.2-18.7,2.5-38.1-7.4-48.4-23.2-4.1-6.2-6.9-13.1-9.7-20-5.6-13.9-11.2-28.3-11.7-43.3-.4-13.8,3.5-27.3,5.5-41,2-13.7,1.7-28.6-6.2-40,4.3,11.2,1.9,24-2.8,35-4.7,11.1-11.6,21.1-16.6,32-14.5,31.3-12.4,69.4,3.9,99.8,3.7,6.8,8.1,13.4,10.3,20.8,2.2,7.4,1.9,16.2-3.1,22.1-5.2,6.1-14.1,7.7-22.2,7.3-16-.7-31.7-7.6-43.1-19-3.5-3.5-6.6-7.3-9.6-11.2-15.9-20.1-31.9-43.7-28.5-69.1Z" style="fill: #f15a29;"/>
</svg>