<?xml version="1.0" encoding="UTF-8"?>
<svg id="Layer_1" data-name="Layer 1" xmlns="http://www.w3.org/2000/svg" viewBox="0 0 77 173.4">
  <path d="m54,83l-10.5-4.5v-37c8.9.7,16.1,4.5,22.3,10.3l7.5-9.1c-7.2-7.5-17.8-12.9-29.8-13.7V5c0-2.8-2.3-5-5-5s-5,2.3-5,5v24.3c-16.6,2.5-28.1,14.1-28.1,29.1s12.2,24.3,22.6,28.8l5.5,2.4v41.9c-9.5-1.5-18.3-6.4-25-13.3l-8.5,9.8c8.6,9,20.2,15,33.5,16.3v24.1c0,2.8,2.3,5,5,5s5-2.3,5-5v-24c20.8-1.7,33.5-15.1,33.5-31.5s-10.1-24.3-23-29.9Zm-34.4-25.4c0-8,5.3-13.5,13.8-15.5v31.9c-7.2-3.3-13.8-7.6-13.8-16.4Zm23.9,74.2v-37.7l.4.2c10.5,4.6,18.6,8.2,18.6,19.6s-7,16.6-19.1,17.9h0Z"/>
</svg>