<?xml version="1.0" encoding="UTF-8"?>
<svg id="_Ñëîé_12" data-name="Ñëîé 12" xmlns="http://www.w3.org/2000/svg" viewBox="0 0 316.3 280.7">
  <path d="m302.8,103.6l-53.9-53.2c-1.7-1.6-4.4-1.6-6.1.1l-2.9,2.9c-2.7,2.7-6.9,3.1-9.2.7l-14.3-14.3c-2.3-2.3-2-6.5.7-9.2l2.9-2.9c1.7-1.7,1.8-4.5.1-6.1l-18.5-18.5c-3-3-8.1-2.8-11.3.4l-31.5,31.5c-3.2,3.2-3.4,8.3-.4,11.3l19.4,19.4c1.2,1.2,3.1,1.2,4.2,0l3.8-3.8c1.4-1.4,3.1-2.2,4.9-2.3,1.7,0,3.2.4,4.3,1.5l14.3,14.3c1.1,1.1,1.6,2.6,1.5,4.3-.1,1.8-.9,3.6-2.3,4.9l-3.8,3.8c-.5.5-.9,1.3-.9,2.1s.3,1.5.9,2.1c0,0,0,0,0,0l.3.3L50.3,247.7c-2.5,2.5-3.9,5.9-3.9,9.4s1.4,6.9,3.9,9.4l9.2,9.2c2.5,2.5,5.9,3.9,9.4,3.9s6.9-1.4,9.4-3.9L233.1,121.1l.3.3c.9.9,2.4,1.1,3.5.5,13.8-7.4,31.9-4.1,44,8,7.2,7.2,11.5,16.6,11.9,26.4.3,6.3-1.1,12.4-3.9,17.6-.7,1.2-.4,2.9.9,3.8,1.3.9,2.9.7,3.9-.3l5.4-5.4c9.6-9.6,15.3-21.9,16-34.8.7-13-3.7-25-12.4-33.7Zm-73.9,13.3l-154.7,154.7c-1.4,1.4-3.2,2.1-5.2,2.1s-3.8-.8-5.2-2.1l-9.2-9.2c-2.9-2.9-2.9-7.5,0-10.4L209.3,97.3l19.6,19.6Zm80.4,20c-.5,9.7-4.3,19.2-10.7,27,.4-2.6.5-5.2.4-7.9-.5-11.3-5.4-22.1-13.7-30.4-13.4-13.4-33.3-17.4-49.1-10.1l-25-25,1.7-1.7c2.4-2.4,3.8-5.5,4-8.8.2-3.4-1-6.6-3.3-8.9l-14.3-14.3c-2.3-2.3-5.4-3.5-8.9-3.3-3.3.2-6.4,1.6-8.8,4l-1.7,1.7-17.3-17.3c-.7-.7-.5-2,.4-2.8l31.5-31.5c.9-.9,2.2-1.1,2.8-.4l17.3,17.3-1.7,1.7c-5.1,5.1-5.4,13-.7,17.7l14.3,14.3c4.7,4.7,12.6,4.3,17.7-.7l1.7-1.7,52.7,52c7.5,7.5,11.3,17.8,10.6,29.1Z" style={{ fill: #353478; stroke: #000; stroke-miterlimit: 10; stroke-width: 2px;"/>
  <path d="m58.9,125.7l52-22.9c1-.5,2-1.1,2.8-1.9l13.8-13.8c4-4,3.5-10.9-1.1-15.5L70.4,15.6c-2.1-2.1-4.9-3.5-7.7-3.7-3-.3-5.8.7-7.8,2.7L3.7,65.8c-2,2-2.9,4.8-2.7,7.8.3,2.8,1.6,5.5,3.7,7.7l41.5,41.5c2.4,2.4,5.6,3.8,8.7,3.8s2.7-.3,4-.8ZM9,77.1c-1.1-1.1-1.9-2.6-2-4,0-.7,0-2,.9-3L59.2,18.8c.8-.8,1.9-1,3-.9,1.4.1,2.9.9,4,2l56,56c2.2,2.2,2.7,5.4,1.1,7l-13.8,13.8c-.3.3-.6.5-.9.6l-52,22.9c-1.8.8-4.3,0-6-1.7L9,77.1Z" style={{ fill: #353478; stroke: #000; stroke-miterlimit: 10; stroke-width: 2px;"/>
  <path d="m81,80.8c.8-.5,1.6-1,2.2-1.7l5.7-5.7c2-2,2.6-4.9,1.7-8.3-.6-2.5-2-5-3.7-6.7l-19.2-19.2c-1.8-1.8-4.2-2.7-6.8-2.6-2.5,0-4.9,1.2-6.7,3l-25.5,25.5c-3.8,3.8-4,9.9-.4,13.5l13.7,13.7c1.7,1.7,4.1,2.6,6.5,2.6s3.2-.4,4.7-1.2l27.6-12.8h.2Zm-2.9-5.3l-27.6,12.8c-1.5.8-3.1,1-4.3-.2l-13.7-13.7c-1.3-1.3-1.1-3.6.4-5.1l25.5-25.5c.8-.8,1.7-1.2,2.7-1.2,0,0,0,0,.1,0,.9,0,1.6.3,2.2.9l19.2,19.2c.8.8,1.7,2.3,2.1,3.9.3,1.2.2,2.2-.1,2.6l-5.7,5.7c-.3.3-.5.5-.8.7Z" style={{ fill: #353478; stroke: #000; stroke-miterlimit: 10; stroke-width: 2px;"/>
  <path d="m91.3,91.2h0c3.5,3.5,9.3,3.5,12.9,0,3.5-3.5,3.5-9.3,0-12.9-3.6-3.6-9.3-3.6-12.9,0-3.6,3.6-3.6,9.3,0,12.9Zm4.2-8.6c1.2-1.2,3.2-1.2,4.4,0,1.2,1.2,1.2,3.2,0,4.4-1.2,1.2-3.2,1.2-4.4,0h0c-1.2-1.2-1.2-3.2,0-4.4Z" style={{ fill: #353478; stroke: #000; stroke-miterlimit: 10; stroke-width: 2px;"/>
  <path d="m56.6,110c3.5,3.5,9.3,3.5,12.9,0,3.5-3.5,3.5-9.3,0-12.9-3.5-3.5-9.3-3.5-12.9,0-3.5,3.5-3.5,9.3,0,12.9h0Zm4.2-8.6c1.2-1.2,3.2-1.2,4.4,0,1.2,1.2,1.2,3.2,0,4.4-1.2,1.2-3.2,1.2-4.4,0-1.2-1.2-1.2-3.2,0-4.4Z" style={{ fill: #353478; stroke: #000; stroke-miterlimit: 10; stroke-width: 2px;"/>
  <path d="m209.3,155.5c-1.2-1.2-3.1-1.2-4.2,0-1.2,1.2-1.2,3.1,0,4.2l93.2,93.2c.4.4.4,1,0,1.3l-13.1,13.1c-.4.4-.9.7-1.5.8l-23.3,3.5c-1.5-5.3-5.7-19.9-6.3-21.8-.5-1.6-.7-4-2.1-5-1.8-1.3-6,0-8.1.3-3.6.5-20,3.2-20.1,3-1.6-5.4-5.8-20-6.3-21.9-.5-1.6-.7-3.9-2-4.9-1.9-1.4-6.2,0-8.3.3-3.6.5-19.9,3.2-20,3l-7.1-24.7c-.4-1.4-1.7-2.3-3.2-2.2-.2,0-15.4,2.2-15.4,2.2-1.6.2-2.8,1.8-2.5,3.4.2,1.6,1.8,2.8,3.4,2.5l12.6-1.9,6.6,23.1c.6,2,2.8,3.6,4.9,3.6s.4,0,.6,0l24.3-3.6,6.8,23.6c.6,2,2.8,3.6,4.9,3.6s.4,0,.6,0l24.2-3.6,6.8,23.5c.7,2.4,3.1,3.9,5.5,3.6l24.2-3.6c1.8-.3,3.6-1.1,4.9-2.5l13.1-13.1c2.7-2.7,2.7-7.1,0-9.8l-93.2-93.2Z" style={{ fill: #353478; stroke: #000; stroke-miterlimit: 10; stroke-width: 2px;"/>
  <path d="m117.1,105l-48,22c-2.6,1.2-4,4.1-3.2,6.9l6.7,23.2c.7,2.3,3.1,3.9,5.5,3.6l24.3-3.6,5.5,19.3c.5,1.6,2.1,2.5,3.7,2.1,1.6-.5,2.5-2.1,2.1-3.7l-6.2-21.5c-.3-1.6-1.8-2.7-3.4-2.5l-26.1,3.9-6.4-22.2,47.8-21.9c.9-.4,1.8-1,2.5-1.7l15.9-16,28.8,28.8c1.2,1.2,3.1,1.2,4.2,0,1.2-1.2,1.2-3.1,0-4.2l-28.9-28.9c-1.1-1.1-2.5-1.7-4.1-1.7h0c-1.5,0-3,.6-4.1,1.7l-16.1,16.2c-.2.2-.4.4-.7.5Z" style={{ fill: #353478; stroke: #000; stroke-miterlimit: 10; stroke-width: 2px;"/>
</svg>
