<?xml version="1.0" encoding="UTF-8"?>
<svg id="Layer_1" data-name="Layer 1" xmlns="http://www.w3.org/2000/svg" viewBox="0 0 141 99.5">
  <g id="NewGroupe1">
    <g id="NewGroup4-16">
      <g>
        <path d="m16.9,23.8c0,.4-.3.8-.6,1-.3.2-.7.4-1.2.3-.4,0-.8-.3-1-.6-.2-.3-.4-.7-.3-1.2,0-.4.3-.8.6-1,.3-.2.6-.3.9-.3s.2,0,.2,0c.4,0,.8.3,1,.6h0c.2.3.4.7.3,1.2h0Zm3-3.6h0c-.9-1.2-2.2-2-3.7-2.2-1.5-.2-3,.2-4.2,1.1-2.5,1.9-3,5.4-1.2,7.9.9,1.2,2.2,2,3.7,2.2.3,0,.6,0,.8,0,1.2,0,2.4-.4,3.4-1.1,1.2-.9,2-2.2,2.2-3.7.2-1.5-.2-3-1.1-4.2h0Z" style="fill: #042e49;"/>
        <path d="m132.3,21.1c3.1,8.8,4.6,18,4.6,27.3,0,8.5-1.4,17-4.1,25.1-.8,2.5-.3,5.2,1.3,7.2.4.5.8,1.1,1.2,1.8,1,1.7,1.6,3.6,1.7,5.2,0,1.2-.2,1.9-.5,2s-1,0-2-.6c-1.3-.8-2.6-2.3-3.6-4,0,0,0,0,0,0-1.4-2.4-4-3.9-6.7-3.9h-25.3c-3.4-2.9-9.1-4.6-15.5-4.6s-.5,0-.7,0c0-.9-.2-1.9-.5-2.8-3.4-8.8-5.1-18-4.9-27.3.2-8.7,2-17.3,5.4-25.4,1.1-2.6.6-5.6-1.1-7.8-.4-.5-.8-1.1-1.2-1.7-2.1-3.7-1.9-6.7-1.1-7.2.8-.5,3.6.9,5.7,4.6.3.5.5.9.7,1.4,1.2,2.8,4,4.6,7,4.6h30.6c3,0,5.8-1.8,7-4.6.2-.5.4-.9.7-1.4,2.1-3.7,4.9-5,5.7-4.6.8.5,1,3.5-1.1,7.2-.4.8-.9,1.5-1.5,2.1-1.8,2.1-2.3,5-1.5,7.6h0Zm-21.3,72.3c-1,.7-4.6,1.7-11.3,2-6.2.3-12.5-.2-16.1-1.2h-.5c0-.1-.5,0-.5,0-3.6,1-9.9,1.4-16.1,1.2-6.7-.3-10.3-1.3-11.3-2,.4-2.7,4.8-5.8,12.1-6.4h1.1c0,0,.5-1.1.5-1.1,1.2-2.2,5.2-4.6,11.3-5.2,0,0,0,0,0,0,.7,0,1.5-.1,2.2-.1.2,0,.5,0,.7,0,7.4,0,12.8,2.7,14.3,5.4l.5,1h1.1c7.2.8,11.6,3.8,12,6.5h0Zm-76.3-20.6l7-5.2,4.2,5.7c.2.2.4.4.6.6l6.9,4c.3.2.7.3,1,.3.6,0,1.1-.2,1.5-.6.8-.4,1.3-1.4,1.1-2.3l-1.8-7.7c0-.3-.2-.5-.4-.8l-4.2-5.7,7.2-5.4c2.6,3.2,6.8,9.3,8.2,17.1.6,3.4.7,6.7.1,9.8-.1.1-.2.3-.3.4-3.8.5-7.3,1.6-9.9,3.2-.8.5-1.4,1-2,1.5-.9-.3-1.9-.6-2.8-1-8.3-3.4-13.8-10-16.4-13.9h0Zm-12.5-39.8l.3-.3h0c.3-.3.7-.5,1-.8l21.1,28.3-1.7,1.3-21.1-28.3c.1,0,.3-.2.4-.3h0Zm-7.8-1.9c-1.9-.3-3.6-1.3-4.8-2.8l-4.6-6.1,12-8.9,4.6,6.1c2.4,3.2,1.7,7.8-1.5,10.1l-.3.3c-1.6,1.2-3.5,1.6-5.4,1.4h0Zm33,32.4l3.9,5.3.8,3.5-3.1-1.8-3.9-5.3,2.3-1.7h0ZM138.8,13.5c3.1-5.4,3-10.9-.4-12.8-3.3-1.9-8.2.7-11.3,6.1-.3.6-.6,1.2-.9,1.8-.6,1.3-1.9,2.2-3.3,2.2h-30.6c-1.4,0-2.7-.8-3.3-2.2-.3-.6-.6-1.2-.9-1.8-3.1-5.4-8-8-11.3-6.1-3.3,1.9-3.5,7.4-.4,12.8.5.8,1,1.5,1.5,2.2.8,1,1,2.4.5,3.7-3.6,8.6-5.5,17.7-5.7,26.9-.2,9.9,1.5,19.6,5.2,28.9.2.5.3,1.1.2,1.6-2.9.4-5.5,1.2-7.6,2.3,0-2.3-.1-4.7-.6-7.1-1.9-10.3-7.9-17.8-10.4-20.6-.7-.8-1.9-.9-2.8-.3l-9,6.7-21.9-29.3c1.7-3.7,1.4-8.2-1.2-11.6l-5.8-7.8c-.3-.4-.8-.7-1.4-.8-.5,0-1.1,0-1.5.4L.8,20c-.9.7-1.1,2-.4,2.9l5.8,7.8c1.8,2.4,4.5,4,7.5,4.5.6,0,1.1.1,1.7.1.9,0,1.7,0,2.5-.3l21.7,29-8.9,6.7c-.9.6-1.1,1.8-.5,2.7,2.3,3.7,8.7,12.7,19.4,17.1.6.3,1.3.5,1.9.7-.3.8-.5,1.6-.5,2.5s.3,1.9,1.5,2.8c2.9,2.2,10.2,2.8,14.4,2.9,6.2.2,12.3-.2,16.2-1.2,3.3.8,8.1,1.3,13.2,1.3s2,0,3,0c4.1-.1,11.5-.7,14.4-2.9,1.3-1,1.5-2.1,1.5-2.8,0-3.5-2.6-6.6-6.8-8.6h15.6c1.3,0,2.5.7,3.1,1.8,0,0,0,0,0,0,1.3,2.3,3.1,4.3,5,5.4,1.3.8,2.7,1.3,3.9,1.3s1.7-.2,2.4-.6c1.8-1,2.7-3.1,2.6-5.8,0-2.2-.9-4.7-2.2-7.1-.5-.8-1-1.6-1.5-2.3-.7-.9-1-2.2-.6-3.3,2.8-8.5,4.3-17.4,4.3-26.4,0-9.8-1.6-19.4-4.8-28.6-.4-1.2-.1-2.5.7-3.5.7-.8,1.3-1.7,1.9-2.7h0Z" style="fill: #042e49;"/>
        <path d="m125.9,56.7h-38.3v-18.8h38.3v18.8h0Zm2.1-22.9h-42.4c-1.1,0-2.1.9-2.1,2.1v22.9c0,1.1.9,2.1,2.1,2.1h42.4c1.1,0,2.1-.9,2.1-2.1v-22.9c0-1.1-.9-2.1-2.1-2.1h0Z" style="fill: #042e49;"/>
      </g>
    </g>
  </g>
</svg>