<?xml version="1.0" encoding="UTF-8"?>
<svg id="Layer_1" data-name="Layer 1" xmlns="http://www.w3.org/2000/svg" viewBox="0 0 145.5 146.8">
  <g>
    <path d="m50.7,125.4c-3.5-1.1-6.9-2.7-10-4.7-1.6-1-3.1-2.1-4.5-3.2-1.4-1.2-2.8-2.4-4.1-3.7-1.3-1.3-2.5-2.7-3.7-4.2-1.1-1.5-2.2-3-3.2-4.6-1.9-3.2-3.5-6.5-4.5-10,1.7,3.2,3.6,6.3,5.7,9.3,1.1,1.5,2.1,2.9,3.3,4.3,1.2,1.4,2.4,2.7,3.6,4,1.2,1.3,2.6,2.5,3.9,3.7,1.3,1.2,2.8,2.3,4.2,3.4,2.9,2.1,6,4.1,9.2,5.8Z" style="fill: #e65125;"/>
    <path d="m124.8,95.5c-1.1,3.5-2.7,6.9-4.7,10-1,1.6-2.1,3.1-3.2,4.5-1.2,1.4-2.4,2.8-3.7,4.1-1.3,1.3-2.7,2.5-4.2,3.7-1.5,1.1-3,2.2-4.6,3.2-3.2,1.9-6.5,3.5-10.1,4.6,3.2-1.7,6.3-3.6,9.3-5.7,1.5-1.1,2.9-2.2,4.3-3.3,1.4-1.2,2.7-2.4,4-3.7,1.3-1.3,2.5-2.6,3.7-4,1.2-1.4,2.3-2.8,3.4-4.2,2.1-2.9,4-6,5.8-9.2Z" style="fill: #fecf0a;"/>
    <path d="m94.8,21.6c3.5,1.1,6.9,2.7,10,4.6,1.6,1,3.1,2.1,4.5,3.2,1.4,1.2,2.8,2.4,4.1,3.7,1.3,1.3,2.5,2.7,3.7,4.2,1.1,1.5,2.2,3,3.2,4.5,1.9,3.1,3.5,6.5,4.6,10-1.7-3.2-3.6-6.3-5.7-9.2-1.1-1.5-2.2-2.9-3.3-4.2-1.2-1.4-2.4-2.7-3.6-4-1.3-1.3-2.6-2.5-3.9-3.7-1.4-1.2-2.8-2.3-4.2-3.4-2.9-2.1-6-4-9.2-5.8Z" style="fill: #95c13d;"/>
    <path d="m21,51.5c1.1-3.5,2.6-6.8,4.6-9.9,1-1.6,2-3,3.2-4.5,1.1-1.4,2.4-2.8,3.6-4.1,1.3-1.3,2.7-2.5,4.1-3.7,1.4-1.1,2.9-2.2,4.5-3.2,3.1-1.9,6.4-3.5,9.9-4.6-3.2,1.8-6.2,3.6-9.1,5.8-1.4,1.1-2.8,2.1-4.2,3.3-1.3,1.2-2.7,2.3-3.9,3.6-1.3,1.2-2.5,2.6-3.6,3.9-1.2,1.3-2.2,2.8-3.3,4.2-2.1,2.9-4,5.9-5.7,9.1Z" style="fill: #39a9e0;"/>
  </g>
  <g>
    <path d="m93.1,21c0,11.2-9,20.2-20.2,20.2s-20.2-9-20.2-20.2S61.8.8,72.9.8s20.2,9,20.2,20.2Z" style="fill: #fff;"/>
    <path d="m93.2,21c0,5.3-1.9,10.7-5.7,14.6-1.8,2-4.1,3.6-6.6,4.7-2.5,1.1-5.3,1.6-8,1.5-2.7,0-5.4-.7-7.9-1.8-2.5-1.1-4.7-2.7-6.6-4.6-3.8-3.8-6-9-6.2-14.5,0-2.7.4-5.4,1.4-8,1-2.5,2.5-4.9,4.4-6.8,1.9-2,4.2-3.5,6.8-4.6C67.4.5,70.2,0,72.9,0c2.7,0,5.5.6,8,1.7,2.5,1.1,4.8,2.7,6.6,4.7,3.7,4,5.7,9.3,5.6,14.6Zm-.1,0c0-2.6-.6-5.3-1.7-7.7-1.1-2.4-2.6-4.5-4.5-6.3-3.8-3.5-8.8-5.5-13.9-5.5-5.1,0-10.1,2-13.8,5.6-1.8,1.8-3.3,3.9-4.3,6.3-1,2.4-1.6,4.9-1.7,7.5,0,2.6.4,5.2,1.4,7.6,1,2.4,2.5,4.6,4.3,6.5,3.7,3.7,9,5.6,14.1,5.5,5.1,0,10.2-2.1,14-5.6,1.9-1.8,3.5-3.9,4.5-6.3,1.1-2.4,1.6-5,1.6-7.7Z" style="fill: #95c13d;"/>
  </g>
  <g>
    <path d="m145.4,73.5c0,11.2-9,20.2-20.2,20.2s-20.2-9-20.2-20.2,9-20.2,20.2-20.2,20.2,9,20.2,20.2Z" style="fill: #fff;"/>
    <path d="m145.5,73.5c0,5.3-1.9,10.7-5.7,14.6-1.8,2-4.1,3.6-6.6,4.7-2.5,1.1-5.3,1.6-8,1.5-2.7,0-5.4-.7-7.9-1.8-2.5-1.1-4.7-2.7-6.6-4.6-3.8-3.8-6-9-6.2-14.5,0-2.7.4-5.4,1.4-8,1-2.5,2.5-4.9,4.4-6.8,1.9-2,4.2-3.5,6.8-4.6,2.5-1.1,5.3-1.6,8-1.6,2.7,0,5.5.6,8,1.7,2.5,1.1,4.8,2.7,6.6,4.7,3.7,4,5.7,9.3,5.6,14.6Zm-.1,0c0-2.6-.6-5.3-1.7-7.7-1.1-2.4-2.6-4.5-4.5-6.3-3.8-3.5-8.8-5.5-13.9-5.5-5.1,0-10.1,2-13.8,5.6-1.8,1.8-3.3,3.9-4.3,6.3-1,2.4-1.6,4.9-1.7,7.5,0,2.6.4,5.2,1.4,7.6,1,2.4,2.5,4.6,4.3,6.5,3.7,3.7,9,5.6,14.1,5.5,5.1,0,10.2-2.1,13.9-5.6,1.9-1.8,3.5-3.9,4.5-6.3,1.1-2.4,1.6-5,1.6-7.7Z" style="fill: #fecf0a;"/>
  </g>
  <g>
    <path d="m40.8,73.5c0,11.2-9,20.2-20.2,20.2S.4,84.7.4,73.5s9-20.2,20.2-20.2,20.2,9,20.2,20.2Z" style="fill: #fff;"/>
    <path d="m40.9,73.5c0,5.3-1.9,10.7-5.7,14.6-1.8,2-4.1,3.6-6.6,4.7-2.5,1.1-5.3,1.6-8,1.5-2.7,0-5.4-.7-7.9-1.8-2.5-1.1-4.7-2.7-6.6-4.6C2.4,84.2.1,78.9,0,73.5c0-2.7.4-5.4,1.4-8,1-2.5,2.5-4.9,4.4-6.8,1.9-2,4.2-3.5,6.8-4.6,2.5-1.1,5.3-1.6,8-1.6,2.7,0,5.5.6,8,1.7,2.5,1.1,4.8,2.7,6.6,4.7,3.7,4,5.7,9.3,5.6,14.6Zm-.2,0c0-2.6-.6-5.3-1.7-7.7-1.1-2.4-2.6-4.5-4.5-6.3-3.8-3.5-8.8-5.5-13.9-5.5-5.1,0-10.1,2-13.8,5.6-1.8,1.8-3.3,3.9-4.3,6.3-1,2.4-1.6,4.9-1.7,7.5,0,2.6.4,5.2,1.4,7.6,1,2.4,2.5,4.6,4.3,6.5,3.7,3.7,9,5.6,14.1,5.5,5.1,0,10.2-2.1,14-5.6,1.9-1.8,3.5-3.9,4.5-6.3,1.1-2.4,1.6-5,1.6-7.7Z" style="fill: #39a9e0;"/>
  </g>
  <g>
    <path d="m93.1,126c0,11.2-9,20.2-20.2,20.2s-20.2-9-20.2-20.2,9-20.2,20.2-20.2,20.2,9,20.2,20.2Z" style="fill: #fff;"/>
    <path d="m93.2,126c0,5.3-1.9,10.7-5.7,14.6-1.8,2-4.1,3.6-6.6,4.7-2.5,1.1-5.3,1.6-8,1.5-2.7,0-5.4-.7-7.9-1.8-2.5-1.1-4.7-2.7-6.6-4.6-3.8-3.8-6-9-6.2-14.5,0-2.7.4-5.4,1.4-8,1-2.5,2.5-4.9,4.4-6.8,1.9-2,4.2-3.5,6.8-4.6,2.5-1.1,5.3-1.6,8-1.6,2.7,0,5.5.6,8,1.7,2.5,1.1,4.8,2.7,6.6,4.7,3.7,4,5.7,9.3,5.6,14.6Zm-.1,0c0-2.6-.6-5.3-1.7-7.7-1.1-2.4-2.6-4.5-4.5-6.3-3.8-3.5-8.8-5.5-13.9-5.5-5.1,0-10.1,2-13.8,5.6-1.8,1.8-3.3,3.9-4.3,6.3-1,2.4-1.6,4.9-1.7,7.5,0,2.6.4,5.2,1.4,7.6,1,2.4,2.5,4.6,4.3,6.5,3.7,3.7,9,5.6,14.1,5.5,5.1,0,10.2-2.1,13.9-5.6,1.9-1.8,3.5-3.9,4.5-6.3,1.1-2.4,1.6-5,1.6-7.7Z" style="fill: #e65125;"/>
  </g>
  <path d="m72.9,34.4h-.3c-1.5-.1-7.5-.9-7.5-7.8v-.3h.3c0,0,4.7,0,6.8,3.6v-8.6c-.6.5-1.3.7-2.1.7-1.8,0-3.3-1.5-3.3-3.3s.2-1.2.5-1.7c-1.3-.5-2.2-1.7-2.2-3.1s1.5-3.3,3.3-3.3.8,0,1.2.2c0,0,0-.2,0-.2,0-1.8,1.5-3.3,3.3-3.3s3.3,1.5,3.3,3.3,0,.1,0,.2c.3-.1.7-.2,1-.2,1.8,0,3.3,1.5,3.3,3.3s-.9,2.6-2.2,3.1c.3.5.5,1.1.5,1.7,0,1.8-1.5,3.3-3.3,3.3s-1.4-.2-1.9-.6v8.5c2.1-3.7,6.8-3.7,6.8-3.7h.3v.3c0,6.8-5.9,7.7-7.4,7.8h0s-.3,0-.3,0Z" style="fill: #95c13d;"/>
  <path d="m86.5,121.5s-4.5,2.2-4.4.8c0,0-2.6,1.7-3.6,1.5-.7-.2-.7-3.6-.7-3.6,0,0-.4.5-.8.3-.4-.3-1.3-2.1-1.2-2.9,0,0-.5,1.1-1.1,1-.5,0-3.5-3.6-3.9-5.6,0,0-.4,5.8-1.5,6.5-.8.5-1.2-.2-1.2-.2,0,0,.2,1.9,0,2.1-.3.2-1.4-.3-1.4-.4,0,0,.7,2.3.4,2.6-.4.3-2.4-.4-3-1,0,0,0,.4-.3.3-.3-.2-3.6-1.9-4.3-3,0,0,2.1,3.6,2.1,3.8,0,.1-.4,0-.4,0,0,0,1.5,2.7,1.1,3.5-.5.8-1.2.2-1.2.2,0,0,1.5,1.6,1.4,2,0,.4-1.9.9-2.3.7,0,0,3,1.9,3,2.4,0,.5-1.2,1.3-1.5,1.4,0,0,4.3.7,4.4,1.2.2.5-.3.8-.3.8,0,0,2.4-.5,3.3-.9.8-.3,2.2-.5,2.9-.2,0,.9-.2,1.8-.4,2.7-.2.9-.4,1.9-.7,2.8l.9.3c.3-1,.5-2,.7-3,.1-.9.2-1.8.3-2.7.4,0,1.1-.2,2.1.1,1.4.4,3.7,1.3,4.2,1.6,0,0-.1-.4,0-.6,0-.2,3.7-.6,4.3-.6,0,0-.8-.6-.8-1.1,0-.5,1.1-2,3.3-3,0,0-1.9.3-2.2-.6-.3-.9,1.4-2,1.4-2,0,0-.9-.3-.9-.6,0-.4.3-1.3.7-1.4,0,0-.8.3-.7-.5.1-.8.9-1.3.9-1.3,0,0-.4,0-.4-.3,0-.3,1.3-2.6,1.8-2.9Z" style="fill: #e65125;"/>
  <g>
    <path d="m136,76.3l4.5-2.7-4.5-2.8,2.5-4.6-5.2-.2-.2-5.2-4.6,2.5-2.8-4.5-2.7,4.5-4.6-2.5-.2,5.2-5.2.2,2.5,4.6-4.5,2.8,4.5,2.7-2.5,4.6,5.2.2.2,5.2,4.6-2.5,2.7,4.5,2.8-4.5,4.6,2.5.2-5.2,5.2-.2-2.5-4.6Zm-12.8,6.6l-4.3-2.5-2.5-4.3v-5l2.5-4.3,4.3-2.5h5l4.3,2.5,2.5,4.4v5l-2.5,4.3-4.3,2.5h-5Z" style="fill: #fecf0a;"/>
    <path d="m135.5,73.6c0,5.4-4.4,9.7-9.7,9.7s-9.7-4.4-9.7-9.7,4.4-9.7,9.7-9.7,9.7,4.4,9.7,9.7Z" style="fill: #fff;"/>
    <path d="m134.2,73.6c0,4.7-3.8,8.5-8.5,8.5s-8.5-3.8-8.5-8.5,3.8-8.5,8.5-8.5,8.5,3.8,8.5,8.5Z" style="fill: #fecf0a;"/>
  </g>
  <path d="m17.2,87c-.4-1.5-.8-3-1.2-4.5.2-.3.4-.7.6-1,.3,1.2.6,2.3.9,3.5.2.6,1.1.4,1-.3-.4-1.5-.8-3-1.2-4.5.2-.3.4-.6.6-1,.1.4.2.8.3,1.2.2.6,1.2.4,1-.3-.2-.7-.4-1.4-.6-2.1.3-.5.5-.9.8-1.4.2.8.5,1.6.7,2.4.1.5.8.5,1,0,.2-.8.5-1.6.7-2.4.3.5.5.9.8,1.4-.2.7-.4,1.4-.6,2.1-.2.6.8.9,1,.3.1-.4.2-.8.3-1.2.2.3.4.6.6,1-.4,1.5-.8,3-1.2,4.5-.2.6.8.9,1,.3.3-1.2.6-2.3.9-3.5.2.3.4.7.6,1-.4,1.5-.8,3-1.2,4.5-.2.6.8.9,1,.3.3-1.2.6-2.3.9-3.5.4.6.7,1.3,1.1,1.9.3.6,1.2,0,.9-.5-.4-.6-.7-1.3-1.1-1.9,1.2.3,2.3.6,3.5.9.6.2.9-.8.3-1-1.5-.4-3-.8-4.5-1.2-.2-.3-.4-.7-.6-1,1.2.3,2.3.6,3.5.9.6.2.9-.8.3-1-1.5-.4-3-.8-4.5-1.2-.2-.3-.4-.6-.6-1,.4.1.8.2,1.2.3.6.2.9-.8.3-1-.7-.2-1.4-.4-2.1-.6-.3-.5-.5-.9-.8-1.4.8.2,1.6.4,2.4.6.5.1.8-.5.5-.8-.6-.6-1.1-1.2-1.7-1.8.5,0,1.1,0,1.6,0,.5.5,1,1,1.6,1.6.5.5,1.2-.3.7-.7-.3-.3-.6-.6-.8-.8.4,0,.7,0,1.1,0,1.1,1.1,2.2,2.2,3.3,3.3.5.5,1.2-.3.7-.7-.9-.9-1.7-1.7-2.6-2.6.4,0,.8,0,1.2,0,1.1,1.1,2.2,2.2,3.3,3.3.5.5,1.2-.3.7-.7-.9-.9-1.7-1.7-2.6-2.6.7,0,1.5,0,2.2,0,.7,0,.7-1,0-1-.7,0-1.5,0-2.2,0,.9-.9,1.7-1.7,2.6-2.6.5-.5-.3-1.2-.7-.7-1.1,1.1-2.2,2.2-3.3,3.3-.4,0-.8,0-1.2,0,.9-.9,1.7-1.7,2.6-2.6.5-.5-.3-1.2-.7-.7-1.1,1.1-2.2,2.2-3.3,3.3-.4,0-.7,0-1.1,0,.3-.3.6-.6.8-.8.5-.5-.3-1.2-.7-.7-.5.5-1,1-1.6,1.6-.5,0-1.1,0-1.6,0,.6-.6,1.1-1.2,1.7-1.8.4-.4,0-1-.5-.9-.8.2-1.6.4-2.4.6.3-.5.5-.9.8-1.4.7-.2,1.4-.4,2.1-.6.6-.2.4-1.2-.3-1-.4.1-.8.2-1.2.3.2-.3.4-.6.6-1,1.5-.4,3-.8,4.5-1.2.6-.2.4-1.1-.3-1-1.2.3-2.3.6-3.5.9.2-.3.4-.7.6-1,1.5-.4,3-.8,4.5-1.2.6-.2.4-1.1-.3-1-1.2.3-2.3.6-3.5.9.4-.6.7-1.3,1.1-1.9.3-.6-.5-1.1-.9-.5-.4.6-.7,1.3-1.1,1.9-.3-1.2-.6-2.3-.9-3.5-.2-.6-1.1-.4-1,.3.4,1.5.8,3,1.2,4.5-.2.3-.4.7-.6,1-.3-1.2-.6-2.3-.9-3.5-.2-.6-1.1-.4-1,.3.4,1.5.8,3,1.2,4.5-.2.3-.4.6-.6,1-.1-.4-.2-.8-.3-1.2-.2-.6-1.2-.4-1,.3.2.7.4,1.4.6,2.1-.3.5-.5.9-.8,1.4-.2-.8-.5-1.6-.7-2.4-.1-.5-.8-.5-1,0-.2.8-.5,1.6-.7,2.4-.3-.5-.5-.9-.8-1.4.2-.7.4-1.4.6-2.1.2-.6-.8-.9-1-.3-.1.4-.2.8-.3,1.2-.2-.3-.4-.6-.6-1,.4-1.5.8-3,1.2-4.5.2-.6-.8-.9-1-.3-.3,1.2-.6,2.3-.9,3.5-.2-.3-.4-.7-.6-1,.4-1.5.8-3,1.2-4.5.2-.6-.8-.9-1-.3-.3,1.2-.6,2.3-.9,3.5-.4-.6-.7-1.3-1.1-1.9-.3-.6-1.2,0-.9.5.4.6.7,1.3,1.1,1.9-1.2-.3-2.3-.6-3.5-.9-.6-.2-.9.8-.3,1,1.5.4,3,.8,4.5,1.2.2.3.4.7.6,1-1.2-.3-2.3-.6-3.5-.9-.6-.2-.9.8-.3,1,1.5.4,3,.8,4.5,1.2.2.3.4.6.6,1-.4-.1-.8-.2-1.2-.3-.6-.2-.9.8-.3,1,.7.2,1.4.4,2.1.6.3.5.5.9.8,1.4-.8-.2-1.6-.4-2.4-.6-.5-.1-.8.5-.5.8.6.6,1.1,1.2,1.7,1.8-.5,0-1.1,0-1.6,0-.5-.5-1-1-1.6-1.6-.5-.5-1.2.3-.7.7.3.3.6.6.8.8-.4,0-.7,0-1.1,0-1.1-1.1-2.2-2.2-3.3-3.3-.5-.5-1.2.3-.7.7.9.9,1.7,1.7,2.6,2.6-.4,0-.8,0-1.2,0-1.1-1.1-2.2-2.2-3.3-3.3-.5-.5-1.2.3-.7.7.9.9,1.7,1.7,2.6,2.6-.7,0-1.5,0-2.2,0-.7,0-.7,1,0,1,.7,0,1.5,0,2.2,0-.9.9-1.7,1.7-2.6,2.6-.5.5.3,1.2.7.7,1.1-1.1,2.2-2.2,3.3-3.3.4,0,.8,0,1.2,0-.9.9-1.7,1.7-2.6,2.6-.5.5.3,1.2.7.7,1.1-1.1,2.2-2.2,3.3-3.3.4,0,.7,0,1.1,0-.3.3-.6.6-.8.8-.5.5.3,1.2.7.7.5-.5,1-1,1.6-1.6.5,0,1.1,0,1.6,0-.6.6-1.1,1.2-1.7,1.8-.4.4,0,1,.5.9.8-.2,1.6-.4,2.4-.6-.3.5-.5.9-.8,1.4-.7.2-1.4.4-2.1.6-.6.2-.4,1.1.3,1,.4-.1.8-.2,1.2-.3-.2.3-.4.6-.6,1-1.5.4-3,.8-4.5,1.2-.6.2-.4,1.1.3,1,1.2-.3,2.3-.6,3.5-.9-.2.3-.4.7-.6,1-1.5.4-3,.8-4.5,1.2-.6.2-.4,1.1.3,1,1.2-.3,2.3-.6,3.5-.9-.4.6-.7,1.3-1.1,1.9-.3.6.5,1.1.9.5.4-.6.7-1.3,1.1-1.9.3,1.2.6,2.3.9,3.5.2.6,1.1.4,1-.3Zm3.4-9.8c-.2-.6-.4-1.2-.5-1.7.2-.3.4-.6.5-.9.2.3.4.6.5.9-.2.6-.4,1.2-.5,1.7Zm.9-3.2c.4,0,.7,0,1.1,0,.4.4.8.9,1.2,1.3-.6-.1-1.2-.3-1.8-.4-.2-.3-.4-.6-.5-.9Zm2.3-2.3c-.4.4-.8.9-1.2,1.3-.4,0-.7,0-1.1,0,.2-.3.4-.6.5-.9.6-.1,1.2-.3,1.8-.4Zm-3.2-1.8c.2.6.4,1.2.5,1.7-.2.3-.4.6-.5.9-.2-.3-.4-.6-.5-.9.2-.6.4-1.2.5-1.7Zm-3.2,1.8c.6.1,1.2.3,1.8.4.2.3.4.6.5.9-.4,0-.7,0-1.1,0-.4-.4-.8-.9-1.2-1.3Zm0,3.7c.4-.4.8-.9,1.2-1.3.4,0,.7,0,1.1,0-.2.3-.4.6-.5.9-.6.1-1.2.3-1.8.4Z" style="fill: #39a9e0;"/>
  <g>
    <g>
      <path d="m56.6,71v-11.1h4.1v1.8h-2.3v2.9h2.3v1.8h-2.3v4.6h-1.8Z" style="fill: #b3b3b3;"/>
      <path d="m69.6,70.3c-.2.3-.4.6-.7.7-.3.1-.8.2-1.4.2s-1.1,0-1.4-.2c-.3-.1-.6-.4-.7-.7,0-.2-.1-.3-.2-.5,0-.2-.1-.5-.1-.8,0-.3,0-.8,0-1.3,0-.6,0-1.3,0-2.1s0-1.6,0-2.1c0-.5,0-1,0-1.3,0-.3,0-.6.1-.8,0-.2.1-.4.2-.6.2-.3.4-.6.7-.7.3-.1.8-.2,1.4-.2s1,0,1.4.2c.3.1.6.4.7.7,0,.2.1.4.2.6,0,.2.1.5.1.8,0,.3,0,.8,0,1.3,0,.5,0,1.3,0,2.1s0,1.6,0,2.1c0,.6,0,1,0,1.3,0,.3,0,.6-.1.8,0,.2-.1.4-.2.5Zm-1.5-1.4c0,0,0-.2,0-.3,0-.1,0-.3,0-.5,0-.2,0-.6,0-1,0-.4,0-1,0-1.6s0-1.2,0-1.7c0-.4,0-.7,0-1,0-.2,0-.4,0-.5,0-.1,0-.2,0-.3,0-.1-.1-.2-.2-.3,0,0-.2,0-.4,0s-.3,0-.4,0c0,0-.1.1-.2.3,0,0,0,.2,0,.3,0,.1,0,.3,0,.5,0,.2,0,.6,0,1,0,.4,0,1,0,1.7s0,1.2,0,1.6c0,.4,0,.7,0,1,0,.2,0,.4,0,.5,0,.1,0,.2,0,.3,0,.1.1.2.2.3,0,0,.2,0,.4,0s.3,0,.4,0c0,0,.2-.1.2-.3Z" style="fill: #b3b3b3;"/>
      <path d="m77.7,59.9h1.8v7.8c0,.4,0,.8,0,1,0,.3,0,.5,0,.7,0,.2,0,.4-.1.5,0,.1-.1.3-.2.4-.2.3-.4.5-.7.6-.3.1-.8.2-1.4.2s-1.1,0-1.4-.2c-.3-.1-.6-.3-.7-.6,0-.1-.1-.3-.2-.4,0-.1,0-.3-.1-.5,0-.2,0-.4,0-.7,0-.3,0-.6,0-1v-7.8h1.8v7.8c0,.2,0,.4,0,.5,0,.1,0,.3,0,.3,0,0,0,.2,0,.2,0,0,0,.1,0,.2,0,0,.1.2.2.2,0,0,.2,0,.4,0s.3,0,.4,0c0,0,.1,0,.2-.2,0,0,0-.1,0-.2,0,0,0-.1,0-.2s0-.2,0-.4c0-.1,0-.3,0-.5v-7.8Z" style="fill: #b3b3b3;"/>
      <path d="m87.3,71c0,0,0-.1,0-.2,0,0,0-.1,0-.2,0,0,0-.2,0-.4,0-.2,0-.4,0-.6,0-.3,0-.6,0-1,0-.4,0-.8-.1-1.2,0-.4-.1-.7-.2-.8,0-.1-.2-.2-.4-.2h-.5v4.5h-1.8v-11.1h2.9c.4,0,.8,0,1,.2.3.1.5.3.7.5.2.2.3.5.3.9,0,.4,0,.8,0,1.4s0,1.1,0,1.4c0,.3-.1.6-.2.8,0,.2-.2.3-.3.4-.1,0-.2.1-.3.2h0c.1.2.3.3.3.5,0,.2.1.4.2.7,0,.4.1.8.2,1.2,0,.4,0,.9.1,1.4,0,.2,0,.4,0,.5,0,.1,0,.3,0,.3,0,0,0,.2,0,.2,0,0,0,.1,0,.2h0c0,0-1.9,0-1.9,0Zm-.9-6.1c.1,0,.2,0,.3,0,0,0,.2,0,.2-.2,0-.1.1-.3.1-.5,0-.2,0-.6,0-1s0-.6,0-.8c0-.2,0-.3-.1-.4,0,0-.1-.1-.2-.2,0,0-.2,0-.3,0h-.7v3.2h.6Z" style="fill: #b3b3b3;"/>
    </g>
    <g>
      <path d="m55.3,78.2c0,0,0-.1,0-.2,0,0,0-.2,0-.3,0-.3,0-.5,0-.6,0-.1-.2-.2-.4-.2s-.2,0-.2,0c0,0-.1,0-.1.1,0,0,0,.1,0,.2,0,.1,0,.2,0,.4s0,.3,0,.4c0,0,0,.2,0,.2,0,0,0,.1,0,.1,0,0,0,0,.1.1,0,0,.2.1.3.2.1,0,.2.1.3.2.1,0,.2.1.4.2.1,0,.2.1.3.2.1,0,.2.2.3.2,0,0,.1.2.2.3,0,.1,0,.3,0,.5,0,.2,0,.5,0,.8s0,.8,0,1.1c0,.3-.1.5-.3.7-.1.2-.3.3-.5.3-.2,0-.5,0-.8,0s-.5,0-.7,0c-.2,0-.3-.1-.5-.3-.1-.1-.2-.3-.3-.5,0-.2,0-.5,0-.9s0-.3,0-.4c0-.1,0-.2,0-.3h1c0,0,0,.1,0,.2v.2c0,.2,0,.4,0,.5,0,.1,0,.2,0,.3,0,0,0,.1.1.1,0,0,.1,0,.2,0s.2,0,.2,0c0,0,.1,0,.2-.1,0,0,0-.2,0-.3,0-.1,0-.3,0-.5s0-.2,0-.3c0,0,0-.1,0-.2,0,0,0-.1,0-.1,0,0,0,0-.1-.1,0,0-.2-.2-.3-.2-.1,0-.3-.1-.4-.2s-.3-.1-.4-.2c-.1,0-.2-.2-.3-.2,0,0-.1-.1-.2-.2,0,0,0-.2-.1-.3,0-.1,0-.3,0-.5,0-.2,0-.5,0-.8s0-.6,0-.9c0-.2.1-.4.3-.5.1-.1.3-.2.5-.3.2,0,.4,0,.7,0s.5,0,.7,0c.2,0,.3.1.5.3s.2.3.2.5c0,.2,0,.5,0,.7s0,.4,0,.5c0,.1,0,.2,0,.3h-1Z" style="fill: #b3b3b3;"/>
      <path d="m59.3,83.2v-7.3h2.7v1.2h-1.6v1.8h1.5v1.1h-1.5v1.9h1.5v1.3h-2.7Z" style="fill: #b3b3b3;"/>
      <path d="m67.1,83.2v-1.8h-.9v1.8h-1.3l.7-7.3h2l.7,7.3h-1.2Zm-.5-6.1h0l-.3,3.1h.7l-.3-3.1Z" style="fill: #b3b3b3;"/>
      <path d="m73,78.2c0,0,0-.1,0-.2,0,0,0-.2,0-.3,0-.3,0-.5,0-.6,0-.1-.2-.2-.4-.2s-.2,0-.2,0c0,0-.1,0-.1.1,0,0,0,.1,0,.2,0,.1,0,.2,0,.4s0,.3,0,.4c0,0,0,.2,0,.2,0,0,0,.1,0,.1,0,0,0,0,.1.1,0,0,.2.1.3.2.1,0,.2.1.3.2.1,0,.2.1.4.2.1,0,.2.1.3.2.1,0,.2.2.3.2,0,0,.1.2.2.3,0,.1,0,.3,0,.5,0,.2,0,.5,0,.8s0,.8,0,1.1c0,.3-.1.5-.3.7-.1.2-.3.3-.5.3-.2,0-.5,0-.8,0s-.5,0-.7,0c-.2,0-.3-.1-.5-.3-.1-.1-.2-.3-.3-.5,0-.2,0-.5,0-.9s0-.3,0-.4c0-.1,0-.2,0-.3h1c0,0,0,.1,0,.2v.2c0,.2,0,.4,0,.5,0,.1,0,.2,0,.3,0,0,0,.1.1.1,0,0,.1,0,.2,0s.2,0,.2,0c0,0,.1,0,.2-.1,0,0,0-.2,0-.3,0-.1,0-.3,0-.5s0-.2,0-.3c0,0,0-.1,0-.2,0,0,0-.1,0-.1,0,0,0,0-.1-.1,0,0-.2-.2-.3-.2-.1,0-.3-.1-.4-.2-.1,0-.3-.1-.4-.2-.1,0-.2-.2-.3-.2,0,0-.1-.1-.2-.2,0,0,0-.2-.1-.3,0-.1,0-.3,0-.5,0-.2,0-.5,0-.8s0-.6,0-.9c0-.2.1-.4.3-.5.1-.1.3-.2.5-.3.2,0,.4,0,.7,0s.5,0,.7,0c.2,0,.3.1.5.3.1.1.2.3.2.5,0,.2,0,.5,0,.7s0,.4,0,.5c0,.1,0,.2,0,.3h-1Z" style="fill: #b3b3b3;"/>
      <path d="m79.9,82.8c-.1.2-.3.4-.5.5-.2,0-.5.1-.9.1s-.7,0-.9-.1c-.2,0-.4-.2-.5-.5,0-.1,0-.2-.1-.4,0-.1,0-.3,0-.5,0-.2,0-.5,0-.9,0-.4,0-.8,0-1.4s0-1,0-1.4c0-.4,0-.6,0-.9,0-.2,0-.4,0-.5,0-.1,0-.2.1-.4.1-.2.3-.4.5-.5.2,0,.5-.1.9-.1s.7,0,.9.1c.2,0,.4.2.5.5,0,.1,0,.2.1.4,0,.1,0,.3,0,.5,0,.2,0,.5,0,.9,0,.4,0,.8,0,1.4s0,1,0,1.4c0,.4,0,.7,0,.9,0,.2,0,.4,0,.5,0,.1,0,.3-.1.4Zm-1-.9c0,0,0-.1,0-.2,0,0,0-.2,0-.4,0-.2,0-.4,0-.6,0-.3,0-.6,0-1.1s0-.8,0-1.1c0-.3,0-.5,0-.6,0-.2,0-.3,0-.4,0,0,0-.1,0-.2,0,0,0-.2-.1-.2,0,0-.1,0-.3,0s-.2,0-.3,0c0,0,0,0-.1.2,0,0,0,.1,0,.2,0,0,0,.2,0,.4,0,.2,0,.4,0,.7,0,.3,0,.6,0,1.1s0,.8,0,1.1c0,.3,0,.5,0,.6,0,.2,0,.3,0,.4,0,0,0,.2,0,.2,0,0,0,.2.1.2,0,0,.1,0,.3,0s.2,0,.3,0c0,0,0,0,.1-.2Z" style="fill: #b3b3b3;"/>
      <path d="m85.9,83.2l-1.6-4.5h0v4.5h-1.1v-7.3h1.2l1,3.1h0v-3.1h1.1v7.3h-.6Z" style="fill: #b3b3b3;"/>
      <path d="m91.4,78.2c0,0,0-.1,0-.2,0,0,0-.2,0-.3,0-.3,0-.5,0-.6,0-.1-.2-.2-.4-.2s-.2,0-.2,0c0,0-.1,0-.1.1s0,.1,0,.2c0,.1,0,.2,0,.4s0,.3,0,.4c0,0,0,.2,0,.2,0,0,0,.1,0,.1,0,0,0,0,.1.1,0,0,.2.1.3.2.1,0,.2.1.3.2.1,0,.2.1.4.2.1,0,.2.1.3.2.1,0,.2.2.3.2,0,0,.1.2.2.3,0,.1,0,.3,0,.5,0,.2,0,.5,0,.8s0,.8,0,1.1c0,.3-.1.5-.3.7-.1.2-.3.3-.5.3-.2,0-.5,0-.8,0s-.5,0-.7,0c-.2,0-.3-.1-.5-.3-.1-.1-.2-.3-.3-.5,0-.2,0-.5,0-.9s0-.3,0-.4c0-.1,0-.2,0-.3h1c0,0,0,.1,0,.2v.2c0,.2,0,.4,0,.5,0,.1,0,.2,0,.3,0,0,0,.1.1.1,0,0,.1,0,.2,0s.2,0,.2,0c0,0,.1,0,.2-.1,0,0,0-.2,0-.3,0-.1,0-.3,0-.5s0-.2,0-.3c0,0,0-.1,0-.2,0,0,0-.1,0-.1,0,0,0,0-.1-.1,0,0-.2-.2-.3-.2-.1,0-.3-.1-.4-.2-.1,0-.3-.1-.4-.2-.1,0-.2-.2-.3-.2,0,0-.1-.1-.2-.2,0,0,0-.2-.1-.3,0-.1,0-.3,0-.5,0-.2,0-.5,0-.8s0-.6,0-.9c0-.2.1-.4.3-.5.1-.1.3-.2.5-.3.2,0,.4,0,.7,0s.5,0,.7,0c.2,0,.3.1.5.3.1.1.2.3.2.5,0,.2,0,.5,0,.7s0,.4,0,.5c0,.1,0,.2,0,.3h-1Z" style="fill: #b3b3b3;"/>
    </g>
  </g>
</svg>