<?xml version="1.0" encoding="UTF-8"?>
<svg id="Layer_1" data-name="Layer 1" xmlns="http://www.w3.org/2000/svg" viewBox="0 0 189.4 170.8">
  <path d="m115.4,22.7c20.4,0,39,8.3,52.4,21.7,13.4,13.4,21.7,31.9,21.7,52.3s-8.3,39-21.7,52.4c-13.4,13.4-31.9,21.7-52.4,21.7s-38.9-8.3-52.3-21.7c-1.7-1.7-3.3-3.5-4.8-5.3-.9-1.3-.6-3,.7-3.9,1.1-.8,2.7-.6,3.6.3,0,.1.2.2.3.3h0c1.3,1.6,2.7,3.1,4.1,4.6,12.4,12.4,29.5,20,48.4,20s36-7.7,48.4-20c12.4-12.4,20-29.5,20-48.4s-7.7-36-20-48.4c-12.4-12.4-29.5-20-48.4-20s-28.6,4.7-39.8,12.8h0c-1.2.9-2.9.6-3.8-.6-.9-1.2-.8-2.9.4-3.8,12.2-8.8,27.1-14,43.3-14h0Z" style="fill: #fff;"/>
  <path d="m115.4,35.8c16.8,0,32.1,6.8,43.1,17.9,11,11,17.9,26.3,17.9,43.1s-6.8,32.1-17.9,43.1c-11,11-26.3,17.9-43.1,17.9s-29.7-5.8-40.5-15.4c-1-1.2-.8-2.9.3-3.9,1-.9,2.5-1,3.6-.2.1,0,.2.2.3.3h0c9.7,8.5,22.4,13.6,36.3,13.6s29.2-6.2,39.2-16.2c10-10,16.2-23.9,16.2-39.2s-6.2-29.1-16.2-39.2c-10-10-23.9-16.2-39.2-16.2s-11.2.9-16.4,2.5h0c-.1,0-.2,0-.3.1-.9.2-1.8,0-2.5-.6-.8-.6-1.1-1.7-1-2.7.2-1,.9-1.8,1.8-2.1,5.8-1.8,11.9-2.8,18.3-2.8h0Z" style="fill: #fff;"/>
  <path d="m154,38.2l-3.4-2.5,4.6-6.3-2.6-1.9c-.8-.6-1.3-1.4-1.4-2.3-.1-.9,0-1.8.6-2.6l2.4-3.2c.6-.8,1.4-1.3,2.3-1.4.9-.1,1.8,0,2.6.6l14.8,10.9c.8.6,1.3,1.4,1.4,2.3.1.9,0,1.8-.6,2.6l-2.4,3.3h0c-.6.8-1.4,1.3-2.3,1.4-.9.1-1.8,0-2.6-.6h0l-2.6-1.9-4.6,6.3-3.4-2.5-2.9-2.1Z" style="fill: #fff;"/>
  <path d="m98.9,0h29.8c1.3,0,2.5.5,3.4,1.4h0c.9.9,1.4,2.1,1.4,3.4v6.5c0,1.3-.5,2.5-1.4,3.4h0c-.9.9-2.1,1.4-3.4,1.4h-6v10.4h-17.9v-10.4h-6c-1.3,0-2.5-.5-3.4-1.4h0c-.9-.9-1.4-2.1-1.4-3.4v-6.5c0-1.3.5-2.5,1.4-3.4h0c.9-.9,2.1-1.4,3.4-1.4h0Z" style="fill: #fff;"/>
  <path d="m20.7,128.3h50.8c1.5,0,2.8,1.3,2.8,2.8h0c0,1.5-1.3,2.8-2.8,2.8H20.7c-1.5,0-2.8-1.3-2.8-2.8h0c0-1.5,1.3-2.8,2.8-2.8h0Z" style="fill: #fff; fill-rule: evenodd;"/>
  <path d="m56.4,107.7h23.7c1.3,0,2.4,1.3,2.4,2.8h0c0,1.5-1.1,2.8-2.4,2.8h-23.7c-1.3,0-2.4-1.3-2.4-2.8h0c0-1.5,1.1-2.8,2.4-2.8h0Z" style="fill: #fff; fill-rule: evenodd;"/>
  <path d="m3.1,87.1h53.3c1.7,0,3.1,1.3,3.1,2.8h0c0,1.5-1.4,2.8-3.1,2.8H3.1c-1.7,0-3.1-1.3-3.1-2.8h0c0-1.5,1.4-2.8,3.1-2.8h0Z" style="fill: #fff; fill-rule: evenodd;"/>
  <path d="m26.8,66.5h51.1c1.7,0,3.1,1.3,3.1,2.8h0c0,1.5-1.4,2.8-3.1,2.8H26.8c-1.7,0-3.1-1.3-3.1-2.8h0c0-1.5,1.4-2.8,3.1-2.8h0Z" style="fill: #fff; fill-rule: evenodd;"/>
  <path d="m49.5,45.7h16.9c1.5,0,2.8,1.3,2.8,2.8h0c0,1.5-1.3,2.8-2.8,2.8h-16.9c-1.5,0-2.8-1.3-2.8-2.8h0c0-1.5,1.3-2.8,2.8-2.8h0Z" style="fill: #fff; fill-rule: evenodd;"/>
  <path d="m47.5,107.7h-8.1c-1.5,0-2.8,1.3-2.8,2.8h0c0,1.5,1.3,2.8,2.8,2.8h8.1c1.5,0,2.8-1.3,2.8-2.8h0c0-1.5-1.3-2.8-2.8-2.8h0Z" style="fill: #fff; fill-rule: evenodd;"/>
  <path d="m34.9,45.7h4.2c1.5,0,2.8,1.3,2.8,2.8h0c0,1.5-1.3,2.8-2.8,2.8h-4.2c-1.5,0-2.8-1.3-2.8-2.8h0c0-1.5,1.3-2.8,2.8-2.8h0Z" style="fill: #fff; fill-rule: evenodd;"/>
  <path d="m66,87.1h4.2c1.5,0,2.8,1.3,2.8,2.8h0c0,1.5-1.3,2.8-2.8,2.8h-4.2c-1.5,0-2.8-1.3-2.8-2.8h0c0-1.5,1.3-2.8,2.8-2.8h0Z" style="fill: #fff; fill-rule: evenodd;"/>
  <path d="m115.4,105.3c4.7,0,8.6-3.8,8.6-8.6s-3.8-8.6-8.6-8.6-8.6,3.9-8.6,8.6,3.9,8.6,8.6,8.6h0Z" style="fill: #fff; fill-rule: evenodd;"/>
  <path d="m87.8,46.6l28.2,47.4c.8,1.3.3,3-1,3.8h0c-1.3.8-3,.3-3.8-1l-28.2-47.4c-.8-1.3-.3-3,1-3.8h0c1.3-.8,3-.3,3.8,1h0Z" style="fill: #fff; fill-rule: evenodd;"/>
  <path d="m150.9,83.8l-31.8,15.4c-1.4.7-3.1,0-3.7-1.3h0c-.7-1.4,0-3.1,1.3-3.7l31.8-15.4c1.4-.7,3.1,0,3.7,1.3h0c.7,1.4,0,3.1-1.3,3.7h0Z" style="fill: #fff; fill-rule: evenodd;"/>
</svg>