<?xml version="1.0" encoding="UTF-8"?>
<svg id="Layer_1" data-name="Layer 1" xmlns="http://www.w3.org/2000/svg" viewBox="0 0 131.6 135.6">
  <path d="m97.1,99.8c-.5-.1-.9-.6-.9-1.1v-46.5c0-.6-.5-1.1-1.1-1.1h-2c-.6,0-1.1.5-1.1,1.1v46.6c0,.5-.4.9-.8,1.1-8.3,2.1-13.6,12-7.4,21.4.6.9,1.3,1.6,2.1,2.1,10.6,6.9,21.8-.6,21.8-10.6s-4.5-11.8-10.6-13Z" style="fill: #2da7df;"/>
  <path d="m79,11.1c0,0-.2.2-.3.3-4.9,4.9-9.8,9.8-14.7,14.7s0,0,0,0c-.2.2-.3.5-.3.8v29.2c0,.9,1,1.4,1.7.9,3.9-2.6,7.8-5.1,11.7-7.7.7-.5,1.7,0,1.7.9v6c0,.4-.2.7-.5.9-3.2,2.1-6.5,4.2-9.7,6.4-.7.4-.7,1.4,0,1.8,3.2,2,6.5,4,9.7,6.1.3.2.5.6.5.9v6c0,.9-1,1.4-1.7.9-3.9-2.5-7.8-4.9-11.7-7.4-.7-.5-1.7,0-1.7.9v27.9c0,.3.2.7.4.9.1,0,.2.2.3.3,1.1,1.1,3.3,3.4,4.7,4.7.2.3.4.6.3,1-.4,2.2-.5,2.9-.3,5.4,0,.4,0,.8.1,1.2.1,1-1.1,1.6-1.9.9l-1.8-1.8c-.7-.7-1.9-.2-1.9.8v11.5c0,4.7-7.3,4.7-7.3,0v-11.2c0-1-1.2-1.5-1.9-.8-2.9,2.9-5.8,5.8-8.8,8.8-3.3,3.3-8.5-1.8-5.1-5.1,5.1-5.1,10.2-10.2,15.3-15.3,0,0,0,0,.1-.1.2-.2.4-.5.4-.8v-27.5c0-.9-1-1.4-1.7-.9-7.8,5.1-15.7,10.3-23.5,15.4-.3.2-.5.5-.5.9,0,.2,0,.4,0,.6-1.4,6.9-2.9,13.9-4.3,20.8-1,4.6-8,2.6-7-1.9.8-4,1.7-7.9,2.5-11.9.2-1-.9-1.7-1.7-1.1-3.3,2.1-6.5,4.3-9.8,6.4-3.9,2.6-7.6-3.7-3.7-6.3,3.1-2,6.2-4,9.2-6.1.8-.5.6-1.8-.4-2-4.1-.9-8.2-1.7-12.4-2.6-4.6-1-2.6-8,1.9-7,7,1.5,14.1,2.9,21.1,4.4,0,0,0,0,0,0,.3,0,.6,0,.9-.2,8.4-5.5,16.8-11,25.1-16.5.7-.4.7-1.4,0-1.9-8.4-5.3-16.8-10.5-25.2-15.8-.3-.2-.7-.2-1,0-.1,0-.3,0-.4.1-7,1.6-14,3.2-21,4.8-4.6,1-6.5-6-1.9-7,4.2-1,8.5-1.9,12.7-2.9,1-.2,1.2-1.5.3-2-2.9-1.8-5.8-3.6-8.7-5.4-4-2.5-.3-8.8,3.7-6.3,2.8,1.8,5.7,3.5,8.5,5.3.8.5,1.9-.2,1.7-1.2-.9-3.8-1.7-7.6-2.6-11.4-1-4.6,6-6.5,7-1.9,1.6,6.9,3.2,13.8,4.8,20.7,0,0,0,.1,0,.2,0,.3.2.6.5.8,8.1,5.1,16.2,10.1,24.2,15.2.7.5,1.7,0,1.7-.9v-28.6c0-.3-.2-.7-.4-.9-.1-.1-.3-.2-.4-.4-5.1-5.1-10.2-10.2-15.3-15.3-3.3-3.3,1.8-8.5,5.1-5.1,3,3,6.1,6.1,9.1,9.1.7.7,1.9.2,1.9-.8V3.7c0-4.7,7.3-4.7,7.3,0v9.9c0,1,1.2,1.5,1.9.8,2.8-2.8,5.6-5.6,8.4-8.4,1.6-1.6,3.6-1.2,4.9,0,1.4,1.3,2,3.5.2,5.2Z" style="fill: #2da7df;"/>
  <path d="m130.3,75.7h-14.8c-2,0-2,3.1,0,3.1h14.6c1.2,0,2.1-1.4,1.1-2.6-.2-.3-.5-.4-.9-.4Zm0-17.5h-14.8c-2,0-2,3.1,0,3.1h14.6c1.2,0,2.1-1.4,1.1-2.6-.2-.3-.5-.4-.9-.4Zm0-17.5h-14.8c-2,0-2,3.1,0,3.1h14.6c1.2,0,2.1-1.4,1.1-2.6-.2-.3-.5-.4-.9-.4Zm-.3-17.5h-14.8c-.3,0-.6.1-.9.4-1,1.2,0,2.6,1.1,2.6h14.8c.3,0,.6-.1.9-.4,1-1.2,0-2.6-1.1-2.6Zm-6.4,43.7h-8.2c-2,0-2,3.1,0,3.1h8.2c2,0,2-3.1,0-3.1Zm0-17.5h-8.2c-.3,0-.6,0-.8.2-1.1.7-.8,2.8.8,2.8h8.2c2,0,2-3.1,0-3.1Zm0-17.5h-8.2c-2,0-2,3.1,0,3.1h8.2c2,0,2-3.1,0-3.1Zm-8,70.8c-.6-1.3-1.2-2.5-2-3.7-1.6-2.4-3.7-4.6-6.2-6.3-.3-.2-.5-.5-.5-.9V18.8c0-3.3.3-6.8-.3-10.1-1.8-9.9-16.6-11.3-22.5-4.6-3.1,3.5-2.7,8-2.7,12.3v75.5c0,.4-.2.7-.5.9-6.9,4.9-10.7,13-10.1,21.3.1,1.5.4,3,.8,4.5,1,3.8,3.1,7.2,5.8,9.9,4.3,4.3,10.2,6.9,16.4,7.1,10.3.3,19.3-6.7,22.6-16.2,1.9-5.6,1.4-11.4-.9-16.6Zm-7.7,23.7c-7.9,7.8-20.4,6.8-27.8-.5-1-1-1.9-2.1-2.7-3.3-.8-1.3-1.5-2.7-2-4.1-1.5-4.3-1.4-9.1.2-13.5,1-2.8,2.8-5.4,5-7.4,1.2-1.2,4.5-2.4,4.5-4.3V18.1c0-3.7-.6-8,1.5-11.2,2.4-3.7,9.2-4,12.9-2.2,2.8,1.4,3.9,4.4,3.9,7.3v81.5c0,.6.2,1,.6,1.3,0,0,.2.2.3.2,4.4,2.7,7.3,6.7,8.7,11.1,2.2,6.9.6,14.8-5.1,20.4Z" style="fill: #010101;"/>
</svg>