<?xml version="1.0" encoding="UTF-8"?>
<svg xmlns="http://www.w3.org/2000/svg" xmlns:xlink="http://www.w3.org/1999/xlink" viewBox="0 0 75 65.4">
  <defs>
    <linearGradient id="linear-gradient" x1="7.8" y1="55.6" x2="5.3" y2="46.1" gradientUnits="userSpaceOnUse">
      <stop offset="0" stop-color="#fff"/>
      <stop offset="1" stop-color="#000"/>
    </linearGradient>
    <linearGradient id="linear-gradient-2" x1="29" y1="7.3" x2="32.9" y2="21.2" gradientUnits="userSpaceOnUse">
      <stop offset="0" stop-color="#fff"/>
      <stop offset=".1" stop-color="#fefafa"/>
      <stop offset=".2" stop-color="#fbecec"/>
      <stop offset=".4" stop-color="#f6d5d6"/>
      <stop offset=".5" stop-color="#f0b5b7"/>
      <stop offset=".7" stop-color="#e78b8e"/>
      <stop offset=".8" stop-color="#dd595e"/>
      <stop offset="1" stop-color="#d22026"/>
    </linearGradient>
  </defs>
  <g style="isolation: isolate;">
    <g id="Layer_1" data-name="Layer 1">
      <path d="m13.6,49.6L.9,55.5c-.5.2-.5.6,0,.9l12.1,8.8c.4.3.7.1.7-.4v-15.3Z" style="fill: #941a1d;"/>
      <path d="m13.6,49.6L.9,55.5c-.5.2-.5.6,0,.9l12.1,8.8c.4.3.7.1.7-.4v-15.3Z" style="fill: url(#linear-gradient); mix-blend-mode: multiply;"/>
      <path d="m.9,55.5l.7-.3h0s-1.5,0-1.5,0c0,0,0,.6.5,1.1-.1-.3,0-.5.3-.7Z" style="fill: #d91f26;"/>
      <path d="m.9,55.5L74.3,21.3c.9-.4.9-1.1,0-1.4-3.8-1.5-12.5-4.8-12.5-4.8-.5-.2-.7-.7-.6-1.2,0,0,3-8.8,4.3-12.7.3-1-.2-1.4-1.1-1L1.3,29.6c-.7.3-1.3,1.2-1.3,2v23.4c0,.5.4.7.9.5Z" style="fill: #d91f26;"/>
      <path d="m.9,55.5L74.3,21.3c.9-.4.9-1.1,0-1.4-3.8-1.5-12.5-4.8-12.5-4.8-.5-.2-.7-.7-.6-1.2,0,0,3-8.8,4.3-12.7.3-1-.2-1.4-1.1-1L1.3,29.6c-.7.3-1.3,1.2-1.3,2v23.4c0,.5.4.7.9.5Z" style="fill: url(#linear-gradient-2); opacity: .2;"/>
      <g>
        <path d="m4.2,35.3l5.5-2.6c.9-.4,1.7-.5,2.4-.3.7.2,1.2.7,1.5,1.3.3.6.3,1.1.1,1.7-.1.4-.4.7-.7,1.1.8-.2,1.4-.1,1.9.1.5.2.9.7,1.2,1.3.2.5.3,1,.3,1.5,0,.5-.2,1-.5,1.4-.2.3-.5.5-1,.8-.6.4-1,.6-1.3.7l-5.1,2.4-4.4-9.5Zm4.7,2.3l1.3-.6c.5-.2.7-.4.8-.7.1-.2,0-.5,0-.8-.1-.3-.3-.5-.6-.5-.3,0-.6,0-1,.2l-1.3.6.8,1.8Zm1.7,3.7l1.5-.7c.5-.2.8-.5.9-.8.1-.3.1-.6,0-.9-.1-.3-.3-.5-.6-.5-.3,0-.7,0-1.2.2l-1.5.7.9,1.9Z" style="fill: #fff;"/>
        <path d="m16.3,35.5c-.7-1.5-.9-3-.4-4.2.5-1.3,1.5-2.3,3-3,1.6-.7,3-.9,4.2-.4,1.2.4,2.2,1.4,2.9,3,.5,1.1.8,2.1.7,3,0,.9-.3,1.7-.8,2.4-.5.7-1.3,1.3-2.4,1.8-1.1.5-2,.7-2.9.7-.9,0-1.7-.3-2.5-.8-.8-.5-1.4-1.4-1.9-2.5Zm2.9-1.4c.4,1,.9,1.6,1.5,1.8.6.3,1.1.2,1.7,0,.6-.3,1-.7,1.2-1.3.2-.6,0-1.4-.5-2.4-.4-.9-.9-1.5-1.5-1.7-.6-.2-1.1-.2-1.8,0-.6.3-1,.7-1.1,1.3-.2.6,0,1.4.4,2.3Z" style="fill: #fff;"/>
        <path d="m25.5,25.4l2.7-1.3,6,3.6-2.4-5.2,2.8-1.3,4.4,9.5-2.8,1.3-6-3.5,2.4,5.2-2.8,1.3-4.4-9.5Z" style="fill: #fff;"/>
        <path d="m42.7,17.4l2.9-1.4,2.6,5.6c.3.6.4,1.1.5,1.7,0,.6,0,1.1-.2,1.7-.2.5-.5,1-.8,1.3-.5.5-1.1.9-1.9,1.3-.5.2-1,.4-1.6.6-.6.2-1.1.3-1.5.3-.5,0-.9-.1-1.4-.3-.5-.2-.8-.5-1.1-.8-.5-.5-.8-1-1-1.5l-2.6-5.6,2.9-1.4,2.7,5.8c.2.5.6.9,1,1,.4.2.9.1,1.4-.1.5-.2.8-.6,1-1,.2-.4.1-.9-.1-1.4l-2.7-5.8Z" style="fill: #fff;"/>
        <path d="m50,21.7l2.7-1.5c.3.4.6.7.9.9.5.2,1,.2,1.6,0,.4-.2.7-.4.8-.7.1-.3.1-.6,0-.8-.1-.2-.3-.4-.6-.5-.3,0-.9,0-1.8.1-1.4.3-2.5.4-3.3.1-.8-.2-1.3-.7-1.7-1.4-.2-.5-.3-1-.2-1.6,0-.6.3-1.1.8-1.6.5-.5,1.2-1,2.2-1.5,1.2-.6,2.2-.8,3.1-.6.8.2,1.6.7,2.1,1.6l-2.7,1.4c-.3-.4-.6-.6-.9-.7-.3,0-.7,0-1.1.2-.3.2-.6.4-.7.6-.1.2-.1.4,0,.6,0,.2.2.3.4.3.2,0,.6,0,1.1-.1,1.4-.3,2.5-.5,3.1-.4.7,0,1.3.2,1.7.5.4.3.8.7,1,1.2.3.6.4,1.2.3,1.9,0,.7-.4,1.3-.9,1.8-.5.5-1.2,1-2.1,1.5-1.6.8-2.9,1-3.8.6-.9-.3-1.6-1-2.2-1.9Z" style="fill: #fff;"/>
      </g>
    </g>
  </g>
</svg>