<?xml version="1.0" encoding="UTF-8"?>
<svg id="Layer_1" data-name="Layer 1" xmlns="http://www.w3.org/2000/svg" viewBox="0 0 92.8 107">
  <g>
    <g>
      <path d="m30.1,68.3h-6.4l-.6-5-6.7-52.5c0-.6.2-1.1.6-1.5,1.4-1.1,2.9-2,4.4-2.9,1-.6,2.3,0,2.4,1.2l6.3,60.6" style="fill: #231f20;"/>
      <path d="m62.1,68.3h6.4l7.3-57.4c0-.6-.2-1.1-.6-1.5-1.4-1.1-2.9-2-4.4-2.9-1-.6-2.3,0-2.4,1.2l-6.3,60.6Z" style="fill: #231f20;"/>
      <path d="m52.5,68.3L55.5,2.8c0-1,1-1.7,2-1.5,1.6.4,3.2.8,4.8,1.3.7.2,1.1.9,1.1,1.6l-4.4,64" style="fill: #231f20;"/>
      <path d="m29.9,2.6c1.5-.5,3.1-1,4.8-1.3,1-.2,1.9.5,2,1.5l3,65.5h-6.4L28.8,4.2c0-.7.4-1.4,1.1-1.6Z" style="fill: #231f20;"/>
      <path d="m50,1.7c0-.9-.7-1.6-1.5-1.6-.8,0-1.6,0-2.4,0s-1.6,0-2.4,0c-.9,0-1.5.8-1.5,1.6l.8,66.6h6.4l.8-66.6Z" style="fill: #231f20;"/>
    </g>
    <g>
      <path d="m13.6,76.7v-28.8c0-.9-.7-1.6-1.6-1.6H1.6c-.9,0-1.6.7-1.6,1.6v1.6c0,.9.7,1.6,1.6,1.6h5.6v25.6l-2.9,29.5c0,.5.3.9.8.9h4.8c.4,0,.8-.3.8-.7l2.9-29.7Z" style="fill: #231f20;"/>
      <path d="m85.6,50.9v25.7l2.9,29.5c0,.5-.3.9-.8.9h-4.8c-.4,0-.8-.3-.8-.7l-2.9-29.7v-28.8c0-.9.7-1.6,1.6-1.6h10.4c.9,0,1.6.7,1.6,1.6v1.6c0,.9-.7,1.6-1.6,1.6h-5.6Z" style="fill: #231f20;"/>
    </g>
  </g>
  <rect x="15.2" y="69.9" width="62.4" height="6.4" style="fill: #231f20;"/>
  <polygon points="78.8 88.7 14 88.7 13.5 93.5 79.2 93.5 78.8 88.7" style="fill: #231f20;"/>
  <path d="m24.7,77.9l.6,4.8c.1.8.8,1.4,1.6,1.4h38.3c.8,0,1.5-.6,1.6-1.4l.6-4.8H24.7Z" style="fill: #231f20;"/>
</svg>