<?xml version="1.0" encoding="UTF-8"?>
<svg id="Layer_1" data-name="Layer 1" xmlns="http://www.w3.org/2000/svg" viewBox="0 0 332.1 308">
  <path d="m243.5,175.3l13-76.3c-2.5-1.7-4.8-3.6-6.9-5.7-9.7-9.8-14.6-24-12.2-38.6.2-1.4.6-2.8.9-4.2,4.3-15.7,16.6-27.4,31.7-31.3l-6.6,38.9,35.7,6.1,6.6-38.9c13.5,9,21.4,25.2,19.3,42.2,0,.7-.1,1.4-.3,2.1-1.5,8.9-5.6,16.7-11.3,22.9-3.5,3.7-7.5,6.7-11.9,9-3,1.6-6.1,2.8-9.4,3.6l-12.3,72.4" style="fill: none; stroke: #304e62; stroke-linecap: round; stroke-linejoin: round; stroke-width: 10.1px;"/>
  <g>
    <polygon points="153.3 83.8 197.9 83.8 197.9 179.5 153.3 179.5 153.3 131.6 153.3 83.8" style="fill: none; stroke: #304e62; stroke-linecap: round; stroke-linejoin: round; stroke-width: 10.1px;"/>
    <g>
      <line x1="178.4" y1="108.5" x2="153.3" y2="108.5" style="fill: none; stroke: #304e62; stroke-linecap: round; stroke-linejoin: round; stroke-width: 10.1px;"/>
      <line x1="178.4" y1="157.8" x2="153.3" y2="157.8" style="fill: none; stroke: #304e62; stroke-linecap: round; stroke-linejoin: round; stroke-width: 10.1px;"/>
      <line x1="170.9" y1="134.6" x2="153.3" y2="134.6" style="fill: none; stroke: #304e62; stroke-linecap: round; stroke-linejoin: round; stroke-width: 10.1px;"/>
    </g>
    <g>
      <g>
        <g>
          <path d="m139.1,57.4l6.9-1.1c7.7-1.2,12.9-8.4,11.7-16.1l-3.6-23.3c-1.2-7.7-8.4-12.9-16.1-11.7l-6.9,1.1c-7.7,1.2-12.9,8.4-11.7,16.1l3.6,23.3c1.2,7.7,8.4,12.9,16.1,11.7Z" style="fill: none; stroke: #304e62; stroke-linecap: round; stroke-linejoin: round; stroke-width: 10.1px;"/>
          <path d="m59.6,74.5l34.9-5.5c7-1.1,11.7-7.6,10.6-14.6l-5.5-34.9c-1.1-7-7.6-11.7-14.6-10.6l-34.9,5.5c-7,1.1-11.7,7.6-10.6,14.6l5.5,34.9c1.1,7,7.6,11.7,14.6,10.6Z" style="fill: none; stroke: #304e62; stroke-linecap: round; stroke-linejoin: round; stroke-width: 10.1px;"/>
          <rect x="102.3" y="21.9" width="19" height="27.2" transform="translate(-4.1 17.7) rotate(-8.9)" style="fill: none; stroke: #304e62; stroke-linecap: round; stroke-linejoin: round; stroke-width: 10.1px;"/>
          <path d="m39.5,28.8l5.7,36.7c-31.1,2.1-36.1,24.7-36.1,24.7,0,0,1.1,7-3.7-23.5C1.2,39.7,32.2,30.6,39.5,28.8Z" style="fill: none; stroke: #304e62; stroke-linecap: round; stroke-linejoin: round; stroke-width: 10.1px;"/>
        </g>
        <polyline points="109.8 179 92.7 69.3 61.4 74.2 77.7 178.9" style="fill: none; stroke: #304e62; stroke-linecap: round; stroke-linejoin: round; stroke-width: 10.1px;"/>
      </g>
      <rect x="36.7" y="179.5" width="290.4" height="123.5" style="fill: none; stroke: #304e62; stroke-linecap: round; stroke-linejoin: round; stroke-width: 10.1px;"/>
      <rect x="36.7" y="241.2" width="290.4" height="61.8" style="fill: none; stroke: #304e62; stroke-linecap: round; stroke-linejoin: round; stroke-width: 10.1px;"/>
      <line x1="151.8" y1="121.1" x2="100.8" y2="121.1" style="fill: none; stroke: #304e62; stroke-linecap: round; stroke-linejoin: round; stroke-width: 10.1px;"/>
      <line x1="252.7" y1="121.1" x2="197.9" y2="121.1" style="fill: none; stroke: #304e62; stroke-linecap: round; stroke-linejoin: round; stroke-width: 10.1px;"/>
      <path d="m68.7,121.1h-15.1c-9.3,0-16.9,7.6-16.9,16.9v41.4h288.1v-41.4c0-9.3-7.6-16.9-16.9-16.9h-18.5" style="fill: none; stroke: #304e62; stroke-linecap: round; stroke-linejoin: round; stroke-width: 10.1px;"/>
    </g>
  </g>
</svg>