<?xml version="1.0" encoding="UTF-8"?>
<svg id="Layer_1" data-name="Layer 1" xmlns="http://www.w3.org/2000/svg" viewBox="0 0 97.2 44.7">
  <path d="m88.7,29.8h-.1c0-1,0-1-.1-1.4-.1-.9-.3-2.1-.6-3.4-.3-1.3-.6-2.7-1.2-4.3-.6-1.5-1.4-3.2-2.7-4.6-1.2-1.5-3.2-2.7-5.3-3-.9-.1-1.9-.1-2.8,0-.1-.1-.2-.2-.4-.3-1.2-.8-2.5-1.6-3.8-2.2-1.3-.6-2.8-.9-4.2-1-1.4,0-2.8.2-4,.6-1.2.5-2.3,1.1-3.1,1.8-.9.7-1.6,1.4-2.1,2.1-.6.7-1,1.3-1.3,1.8,0,0,0,.2-.1.2-.2,0-.4,0-.6,0,0-.3,0-.7,0-1.1.1-1.7.2-4,.2-6.9,0-1.4,0-3-.2-4.6-.1-.9-.2-1.7-.6-2.7,0-.1-.1-.3-.3-.4-.2-.2-.3-.3-.7-.4-.3-.1-.7,0-.9.1-.2.1-.4.3-.5.4-.4.5-.6.9-.9,1.3-.6,1.3-1.1,2.6-1.5,3.9-.4-.4-.9-.8-1.4-1.2-.7-.6-1.6-1-2.5-1.4-.9-.4-1.9-.6-2.9-.7-2-.2-4,0-6,.6-1.9.6-3.8,1.4-5.6,2.4-1.8,1-3.5,2.1-5.1,3.2-1.4,1-2.7,2.1-4,3.2-1.5-.9-3.3-1.6-5.2-1.4-1,0-2.1.5-2.9,1-.8.6-1.4,1.3-2,2-1,1.4-1.7,2.9-2.2,4.3-.5,1.4-.8,2.7-1,3.8-.2,1.2-.4,2.2-.5,3,0,.1,0,.3,0,.4,0,0-.2,0-.2,0-5.2,0-9.5,1-9.5,2.2s4.3,2.2,9.5,2.2,9.5-1,9.5-2.2-3.1-2-7.3-2.2c.9-.9,2.1-1.9,3.6-3,.9-.7,1.9-1.4,3.1-2.1,1.1-.7,2.3-1.3,3.6-1.9.6-.3,1.3-.5,2-.8.7-.2,1.4-.4,2.1-.6,0,0,.1,0,.2,0,.3.3.6.6.8.8,1.3,1.3,2.5,2.8,3.6,4.3,1.1,1.5,2.2,3,3.2,4.4,2,2.9,3.8,5.8,5.3,8.2,1.6,2.5,2.8,4.7,3.7,6.1-5.1.1-9,1-9,2.1s4.6,2.1,10.2,2.1,10.2-1,10.2-2.1-3.7-1.9-8.5-2.1c0,0,0,0,.1-.2,1.2-1.4,2.9-3.4,5-5.8,1-1.1,2.1-2.4,3.3-3.6,3.3-.3,5.6-1,5.6-1.8s-1-1-2.7-1.3c.4-.4.7-.7,1.1-1.1,1.4-1.4,2.9-2.8,4.4-4.1,1.5-1.4,3.2-2.7,4.9-3.8,1.7-1.2,3.4-2.2,5.3-3,.7-.3,1.5-.5,2.2-.7.2.2.5.4.7.5.5.5,1,.9,1.5,1.4.5.5.9,1,1.4,1.4.5.5.9,1,1.3,1.5.9,1,1.6,2,2.4,2.9.7.9,1.4,1.8,2.1,2.7.6.9,1.2,1.6,1.7,2.3.5.7.9,1.3,1.3,1.8-4.1.1-7.3.8-7.3,1.6s3.8,1.6,8.5,1.6,8.5-.6,8.5-1.5-3.8-1.5-8.5-1.5ZM50.9,13.1c.3-1.4.6-2.7,1-4.1.8,1.1,1.4,2.2,1.9,3.3.3.5.5,1,.7,1.5.2.5.4.9.5,1.3.2.4.3.8.4,1.1-2,0-3.8.2-5.3.4.3-1.2.5-2.3.8-3.5Zm3.1-11.5s0,0,0,0c0,0,0,0,0,0Zm-.1,1c0-.2.2-.4.3-.6.2.5.3,1.2.5,1.8.3,1.6.4,3.1.5,4.5.2,2.8.4,5,.5,6.6,0,.4,0,.9,0,.9h-.1c0,0-.1-.5-.3-1,0-.4-.2-.8-.4-1.3-.1-.5-.3-1-.5-1.6-.4-1.1-.9-2.4-1.8-3.7-.1-.2-.3-.5-.5-.7.5-1.7.9-3.5,1.6-4.9Zm-25.3,7.7c1.6-1.1,3.2-2.1,4.9-3.1,1.7-.9,3.4-1.7,5.2-2.3,1.8-.5,3.6-.9,5.3-.7,1.7.1,3.3.6,4.6,1.5.7.4,1.3.9,1.8,1.5-.5,1.8-1,3.6-1.4,5.4-.3,1.5-.6,2.9-.9,4.4-.6.2-1,.4-1,.7s.2.4.7.6c-.4,1.8-.7,3.6-1,5.3,0,0,0,.1,0,.2-.3-.4-.6-.7-1-1.1-.7-.9-1.7-1.8-2.7-2.8-.5-.4-1.1-.9-1.6-1.4-.6-.5-1.2-.8-1.8-1.3-.6-.4-1.3-.7-2-1.1-.7-.3-1.5-.6-2.2-.9-.8-.2-1.6-.5-2.4-.6-.4,0-.8-.2-1.2-.2h-1.2c-1.2-.1-2.4,0-3.6.2-.6-.6-1.2-1.1-1.9-1.6,1.1-.9,2.3-1.8,3.6-2.7Zm19.5,16.4c.2.2.3.4.5.6-.3,0-.6,0-.8,0,0-.3.1-.5.2-.8,0,0,.1.1.2.2Zm-37.9-2c.2-.8.5-1.8.8-2.9.4-1.1.8-2.3,1.4-3.6.6-1.3,1.3-2.6,2.3-3.8,1-1.2,2.3-2.1,3.8-2.1,1.2,0,2.4.4,3.5,1-2.4,2.2-4.5,4.3-6.3,6.3-1.2,1.4-2.3,2.6-3.2,3.7-.6.6-1.1,1.2-1.5,1.8-.3,0-.6,0-1,0,0-.1,0-.2,0-.3Zm11.1-8.2c-.3.2-.7.3-1,.5,1-.9,2.1-1.8,3.2-2.7.4.3.8.6,1.1.9-1.2.4-2.3.8-3.3,1.3Zm19.1,17.4c-1.3-2.6-2.9-5.5-4.9-8.6-1-1.5-2-3.1-3.2-4.6-1.1-1.5-2.3-2.9-3.5-4.3.6,0,1.2,0,1.7,0h1.1c.4,0,.7.2,1.1.2.7,0,1.4.3,2.1.5.7.2,1.4.5,2,.7.6.3,1.3.6,1.9,1,.6.4,1.2.7,1.8,1.1.6.4,1.1.8,1.6,1.2,1,.9,2,1.6,2.8,2.4.4.4.8.8,1.2,1.2.1.1.3.3.4.4-.1.8-.3,1.6-.4,2.4-3.3.3-5.6,1-5.6,1.8s2.1,1.4,5.1,1.7c-.1.8-.2,1.6-.3,2.3-.4,3.1-.7,5.6-.9,7.3,0,0-.1,0-.2,0-.3,0-.6,0-.9,0-.7-1.6-1.7-3.9-3.1-6.7Zm9.9,0c-1.9,2.5-3.4,4.8-4.4,6.3,0,.1-.2.2-.2.4-.3,0-.5,0-.8,0,.4-1.6,1-4.1,1.7-7.1.2-.8.3-1.6.5-2.4,1,0,2.1.1,3.3.1s1.4,0,2.1,0c-.8,1-1.5,1.9-2.2,2.8Zm22.1-19.8c-2,.8-3.9,1.9-5.7,3.1-1.8,1.3-3.4,2.6-5,4-1.6,1.4-3,2.9-4.4,4.3-.6.7-1.2,1.3-1.8,2-1.5-.2-3.2-.3-5.1-.3s-.8,0-1.1,0c-.2-.3-.4-.6-.6-.9-.1-.2-.3-.4-.4-.6.1-.6.3-1.2.4-1.8.4-1.7.7-3.4,1.1-5.1,1.6.3,3.8.4,6.3.4,4.9,0,8.8-.7,8.8-1.5s-3.3-1.4-7.7-1.5c0,0,0,0,0,0,.8-.9,2-2.2,3.8-3.2.9-.5,1.8-1,2.9-1.3,1.1-.3,2.3-.4,3.5-.3.6,0,1.2.2,1.8.3.6.2,1.2.4,1.8.7.8.3,1.6.8,2.4,1.3-.3.1-.7.2-1,.4Zm15.7,15.3c-.3-.6-.6-1.2-1-2-.4-.8-.9-1.6-1.4-2.5-.5-.9-1.2-1.9-1.8-2.9-.7-1-1.4-2.1-2.3-3.1-.8-1.1-1.7-2.1-2.7-3.1-.3-.3-.6-.6-.9-.8.2,0,.4,0,.6,0,1.8.2,3.3,1.1,4.5,2.3,1.2,1.2,2.1,2.6,2.7,4,.6,1.4,1.2,2.7,1.5,4,.4,1.2.7,2.3.9,3.2.1.5.2.9.3,1.2-.1,0-.3,0-.4,0,0,0,0,0,0-.2Z" style="fill: #333;"/>
</svg>