<?xml version="1.0" encoding="UTF-8"?>
<svg id="Layer_1" data-name="Layer 1" xmlns="http://www.w3.org/2000/svg" xmlns:xlink="http://www.w3.org/1999/xlink" viewBox="0 0 426 298.5">
  <defs>
    <clipPath id="clippath">
      <rect width="426" height="298.5" style="fill: none;"/>
    </clipPath>
  </defs>
  <g style="clip-path: url(#clippath);">
    <path d="m421.8,217.5h-79.4v-68.2c0-2.3-1.9-4.2-4.2-4.2h-79.3v-68.2c0-2.3-1.9-4.2-4.2-4.2h-79.3V4.6c0-2.3-1.9-4.2-4.2-4.2H4.2C1.9.5,0,2.3,0,4.6v289.4c0,2.3,1.9,4.2,4.2,4.2h417.7c2.3,0,4.2-1.9,4.2-4.2v-72.4c0-2.3-1.9-4.2-4.2-4.2m-87.7,0h-158.7v-64h158.7v64Zm-246.4,0H8.4v-64h158.7v64h-79.4Zm-4.2-72.4H8.4v-64h75.2v64Zm167,0H91.9v-64h158.7v64ZM8.4,8.8h158.7v64H8.4V8.8Zm0,217h75.2v64H8.4v-64Zm83.5,0h158.7v64H91.9v-64Zm325.8,64h-158.7v-64h158.7v64Z"/>
  </g>
</svg>