<?xml version="1.0" encoding="UTF-8"?>
<svg id="Layer_1" data-name="Layer 1" xmlns="http://www.w3.org/2000/svg" viewBox="0 0 340.1 340">
  <path d="m319.9,249.6c12.5,12.6,17.2,30,13.7,46.2-.2.9-1.3,1.2-2,.6l-23.9-23.9c-7-7-18.3-7-25.3,0l-11.3,11.3c-7,7-7,18.3,0,25.3l23.9,23.9c.6.6.3,1.8-.6,2-16.2,3.4-33.6-1.2-46.2-13.8-17.8-17.8-20.9-34.1-15.6-48.9.3-.8.1-1.7-.5-2.3L71.2,108.8c-.6-.6-1.5-.8-2.3-.5-14.7,5.3-31.1,2.1-48.8-15.7C7.6,80.1,3,62.6,6.4,46.5c.2-.9,1.3-1.2,2-.6l23.9,23.9c7,7,18.3,7,25.3,0l11.3-11.3c7-7,7-18.3,0-25.3l-23.9-23.9c-.6-.6-.3-1.8.6-2,16.2-3.4,33.6,1.2,46.2,13.8,17.8,17.8,20.9,34.1,15.6,48.9-.3.8-.1,1.7.5,2.3l161,161.2c.6.6,1.5.8,2.3.5,14.7-5.3,31.1-2.1,48.8,15.7Z" style="fill: none; stroke: #1a1a1a; stroke-linecap: round; stroke-linejoin: round; stroke-width: 8.2px;"/>
  <path d="m256.2,137.7l-49.3-44.9c-.9-.8-1-2.2-.1-3.1L274.2,15.7c13.2-14.5,35.7-15.6,50.2-2.4h0c14.5,13.2,15.6,35.7,2.4,50.2l-67.4,74.1c-.8.9-2.2,1-3.1.1Z" style="fill: none; stroke: #1a1a1a; stroke-linecap: round; stroke-linejoin: round; stroke-width: 8.2px;"/>
  <line x1="293.6" y1="29.9" x2="246.2" y2="82" style="fill: none; stroke: #1a1a1a; stroke-linecap: round; stroke-linejoin: round; stroke-width: 8.2px;"/>
  <line x1="310.8" y1="45.5" x2="263.4" y2="97.6" style="fill: none; stroke: #1a1a1a; stroke-linecap: round; stroke-linejoin: round; stroke-width: 8.2px;"/>
  <path d="m230.8,168.6l-49.8-47.3c-4.5-4.3-4.7-11.4-.4-15.9h0c4.3-4.5,11.4-4.7,15.9-.4l49.8,47.3c4.5,4.3,4.7,11.4.4,15.9h0c-4.3,4.5-11.4,4.7-15.9.4Z" style="fill: none; stroke: #1a1a1a; stroke-linecap: round; stroke-linejoin: round; stroke-width: 8.2px;"/>
  <path d="m146.7,210.5l-70.9,70.5c-.3.3-.5.8-.6,1.2l-3.6,22.9c-.1.6-.5,1.2-1.1,1.5l-49.2,29c-.9.5-2,.4-2.7-.3l-14-14.1c-.7-.7-.8-1.8-.3-2.7l29.3-48.9c.3-.6.9-.9,1.6-1l22.9-3.4c.5,0,.9-.3,1.2-.6l71.3-70.9" style="fill: none; stroke: #1a1a1a; stroke-linecap: round; stroke-linejoin: round; stroke-width: 8.2px;"/>
</svg>