<?xml version="1.0" encoding="UTF-8"?>
<svg id="Layer_1" data-name="Layer 1" xmlns="http://www.w3.org/2000/svg" viewBox="0 0 422.6 467.5">
  <path d="m184.3,13.1l224.8,224.8c5.3,5.3,5.3,14,0,19.3l-151.9,151.9c-5.3,5.3-14,5.3-19.3,0L13.1,184.3c-2.4-2.4-3.9-7-3.5-10.3L28.9,35.8c.4-3.3,3.5-6.4,6.8-6.8L174,9.6c3.3-.4,7.9,1.1,10.3,3.5Z" style="fill: #fff;"/>
  <path d="m247.5,422.6c-6.2,0-12-2.4-16.4-6.8L6.3,191c-4.5-4.5-7-12-6.2-18.3L19.5,34.5c1-7.5,7.5-13.9,15-15L172.7.2c.8-.1,1.7-.2,2.5-.2,5.8,0,12,2.5,15.8,6.3l224.8,224.8c9,9,9,23.7,0,32.8l-151.9,151.9c-4.4,4.4-10.2,6.8-16.4,6.8ZM38.2,38.2l-19.2,137.1c0,.5.4,1.8.8,2.3l224.8,224.8c1,1,2.3,1.2,2.9,1.2s1.9-.2,2.9-1.2l151.9-151.9c1.6-1.6,1.6-4.3,0-5.8L177.5,19.8c-.4-.3-1.6-.7-2.4-.7L38.2,38.2Z" style="fill: #010101;"/>
  <path d="m95,130.8c-9.6,0-18.6-3.7-25.3-10.5-14-14-14-36.7,0-50.6,6.8-6.8,15.8-10.5,25.3-10.5s18.6,3.7,25.3,10.5c6.8,6.8,10.5,15.8,10.5,25.3s-3.7,18.6-10.5,25.3c-6.8,6.8-15.8,10.5-25.3,10.5Zm0-52.6c-4.5,0-8.7,1.7-11.9,4.9-6.5,6.5-6.5,17.2,0,23.7,3.2,3.2,7.4,4.9,11.9,4.9s8.7-1.7,11.9-4.9c3.2-3.2,4.9-7.4,4.9-11.9s-1.7-8.7-4.9-11.9c-3.2-3.2-7.4-4.9-11.9-4.9Z" style="fill: #010101;"/>
  <path d="m305.9,343.8c0,63-51.1,114.1-114.1,114.1s-114.1-51.1-114.1-114.1,51.1-114.1,114.1-114.1,114.1,51.1,114.1,114.1Z" style="fill: #fff;"/>
  <path d="m191.8,467.5c-68.2,0-123.6-55.5-123.6-123.6s55.5-123.6,123.6-123.6,123.6,55.5,123.6,123.6-55.5,123.6-123.6,123.6Zm0-228.2c-57.7,0-104.6,46.9-104.6,104.6s46.9,104.6,104.6,104.6,104.6-46.9,104.6-104.6-46.9-104.6-104.6-104.6Z" style="fill: #010101;"/>
  <path d="m200.6,332c-14.6-5.9-21.6-9.9-21.6-16.9s4.3-11.6,16.2-11.6,19,3.6,23.6,5.7l1,.5c.4.2.8.2,1.2,0,.4-.2.7-.5.8-.9l5-17.1c.2-.7-.1-1.3-.7-1.7-7.6-3.8-15.5-5.8-24.8-6.2v-15.9c0-.8-.6-1.4-1.4-1.4h-15.2c-.8,0-1.4.6-1.4,1.4v17c-18.4,3.7-29.9,16.2-29.9,32.7s16.7,28.6,33,34.5c13.7,5,19.3,10.1,19.3,17.4s-7.3,13.3-18.3,13.3-23.2-5-28.3-8c-.4-.2-.9-.2-1.2,0-.4.2-.7.5-.8.9l-5,17.4c-.2.6,0,1.2.6,1.6,3.4,2.3,8.1,4.3,13.5,5.8,5.1,1.4,10.6,2.3,16,2.6v16.7c0,.8.6,1.4,1.4,1.4h15.2c.8,0,1.4-.6,1.4-1.4v-17.9c19.1-3.6,31.4-17,31.4-34.2s-9.3-27.5-30.9-35.7Z" style="fill: #010101;"/>
</svg>