<?xml version="1.0" encoding="UTF-8"?>
<svg id="Layer_1" data-name="Layer 1" xmlns="http://www.w3.org/2000/svg" viewBox="0 0 196.4 20.3">
  <path d="m.2,9.5S18.3,1.1,24.4.5" style={{ fill: none; stroke: #ed1c24; stroke-miterlimit: 10;"/>
  <path d="m5.1,14.7s3.4-5.3,7.2-8.1" style={{ fill: none; stroke: #ed1c24; stroke-miterlimit: 10;"/>
  <path d="m16.1,9.3c1.6-.2,5.7-1.3,6-.3.3,1-2.2,2.5-2.4,2.6-.2.1-2.8,1.8-2.8.1,0-1.7,2.9-2.5,3.1-2.5s2.6-.5,2.7,0,5.2-4.9,5.2-4.9c0,0-6.8,5.4-6.4,7.4s3.4-1,3.4-1" style={{ fill: none; stroke: #ed1c24; stroke-miterlimit: 10;"/>
  <path d="m46.5,2.9s-1,2.6-2.2,5.2c-1.2,2.8-2.6,5.7-3.1,5.9-.9.2,0-3.9,1.6-5.9s7.9-6.6,9.1-5.8c.8.3.6,1.2,0,1.9-1.5,1.7-6.4,3.2-7.1,3.2" style={{ fill: none; stroke: #ed1c24; stroke-miterlimit: 10;"/>
  <path d="m60.5,5.2s-3.7,8.4-4.4,8.3c-.7-.2,10.9-10.7,12.2-10.2s-5,9-5.2,9S76,.9,76.5,1.8c.5.9-10.7,12.7-10.2,14.8" style={{ fill: none; stroke: #ed1c24; stroke-miterlimit: 10;"/>
  <path d="m76.2,9.8s.4-2-1.9-.1-2.5,3-2.3,3.3c.1.4.8,1.1,2.5-.2s1.7-3.4,1.7-3.4" style={{ fill: none; stroke: #ed1c24; stroke-miterlimit: 10;"/>
  <path d="m76.2,9.2s2.2-.7,2.6-1,.2,1.1.8,1.1c.6,0-1.2.8-1.2,2.5s2.1,1,2.8.7,9.8-8.1,10.8-10.1c1-2-5.2,5.4-5.4,5.9s-4.3,6,0,3.4,3.6-2.4,5.1-2.9" style={{ fill: none; stroke: #ed1c24; stroke-miterlimit: 10;"/>
  <path d="m92.7,8.9s0,0,0,.2c0,.6-.3,2.1-1.7,3.2-1.7,1.4-2.4.6-2.5.2-.1-.4,0-1.5,2.3-3.3s1.9.1,1.9.1" style={{ fill: none; stroke: #ed1c24; stroke-miterlimit: 10;"/>
  <path d="m16.1,9.9s.3-1.8-1.7-.1c-2.1,1.7-2.3,2.8-2.2,3.1.1.3.8,1.1,2.3-.2,1.6-1.3,1.6-3.1,1.6-3.1" style={{ fill: none; stroke: #ed1c24; stroke-miterlimit: 10;"/>
  <path d="m29.8,8.9c.3,1-2.2,2.5-2.4,2.6s-2.8,1.8-2.8.1,2.9-2.5,3.1-2.5,2.6-.5,2.7,0,5.2-4.9,5.2-4.9c0,0-6.8,5.4-6.4,7.4s5.9-1,5.9-1" style={{ fill: none; stroke: #ed1c24; stroke-miterlimit: 10;"/>
  <path d="m94.1,8.6c-4.8-.6,3.2.6,4.1.3s1-.6,1-.6c0,0,.2-.7-1.4,1.1-1.7,1.8-3.7,3.2-3.7,3.2,0,0-1.1.2,0-.6s7-4,7.3-3.5c.3.5-.5,1.2-.9,1.6s-4,4.1.7,2.7,5.6-5.7-6.5-6.5-12.3-.6-12.3-.6h34.5" style={{ fill: none; stroke: #ed1c24; stroke-miterlimit: 10;"/>
  <path d="m127.1,12.5s7.1-3.5,9.4-6.2,1.7-6.9-.9-2.8c-1.2,1.8-2.5,4.5-3.6,7-1.4,3.2-2.5,6-2.6,6.6-.2,1.1.2,4.4,2.6,1.7s.5-7.2.5-7.2c0,0,4.7-.4,7.6-2.6" style={{ fill: none; stroke: #ed1c24; stroke-miterlimit: 10;"/>
  <path d="m142.9,7.9s0,0,0,.2c0,.6-.3,2.1-1.7,3.2-1.7,1.4-2.4.6-2.5.2-.1-.4,0-1.5,2.3-3.3s1.9.1,1.9.1" style={{ fill: none; stroke: #ed1c24; stroke-miterlimit: 10;"/>
  <path d="m142.7,7.5s1.8,1.6,3.3.7,2.6-1.9,1.1-.2c-1.6,1.7-2.9,5.7,1.2,2.9,4.1-2.9,4.3-5.5,2.4-3.4s-3.1,6.4-.2,4.4,7.3-6,6.1-3.9-1.4,3-2.3,3.7.1-1.7,3.4-3.4,3.6-1.6,2.4,0-2.2,3.3-.7,3.6c1.5.2,3.5-2.5,4.2-2.7" style={{ fill: none; stroke: #ed1c24; stroke-miterlimit: 10;"/>
  <path d="m167.3,8.1c.3,1-2.1,2.4-2.3,2.5-.2.1-2.7,1.7-2.7.1,0-1.6,2.9-2.4,3-2.4.2,0,2.5-.5,2.7,0,.1.5,5.1-4.7,5.1-4.7,0,0-6.7,5.2-6.3,7.1.9,2.7,5.3.3,6.3-.5" style={{ fill: none; stroke: #ed1c24; stroke-miterlimit: 10;"/>
  <path d="m170.9,11.3s4.2-2,4.7-3.1,0-1.4-.6-1.2-4.2,1.7-3.5,3.1,1.5,1.4,2.9,1.3c1.4,0,3.7-.8,4.6-2.6s1.1-1.6,1.1-1.6c0,0,0,.8.4,1,.4.2-2.5,4.2.7,4.6s13.9-5.7,14.8-6.6" style={{ fill: none; stroke: #ed1c24; stroke-miterlimit: 10;"/>
  <line x1="113.8" y1="9.8" x2="121.4" y2="9.8" style={{ fill: none; stroke: #ed1c24; stroke-miterlimit: 10;"/>
</svg>
